ISO-10303-21;
HEADER;
/* Generated by software containing ST-Developer
 * from STEP Tools, Inc. (www.steptools.com) 
 */

FILE_DESCRIPTION(
/* description */ (''),
/* implementation_level */ '2;1');

FILE_NAME(
/* name */ 'HackPad.step',
/* time_stamp */ '2026-06-08T16:33:14+05:00',
/* author */ (''),
/* organization */ (''),
/* preprocessor_version */ 'ST-DEVELOPER v20.1',
/* originating_system */ 'Autodesk Translation Framework v15.8.0.0',
/* authorisation */ '');

FILE_SCHEMA (('AUTOMOTIVE_DESIGN { 1 0 10303 214 3 1 1 }'));
ENDSEC;

DATA;
#10=MECHANICAL_DESIGN_GEOMETRIC_PRESENTATION_REPRESENTATION('',(#13),#879);
#11=SHAPE_REPRESENTATION_RELATIONSHIP('SRR','None',#886,#12);
#12=ADVANCED_BREP_SHAPE_REPRESENTATION('',(#14),#878);
#13=STYLED_ITEM('',(#895),#14);
#14=MANIFOLD_SOLID_BREP('Body1',#499);
#15=FACE_BOUND('',#96,.T.);
#16=FACE_BOUND('',#97,.T.);
#17=FACE_BOUND('',#98,.T.);
#18=FACE_BOUND('',#99,.T.);
#19=FACE_BOUND('',#115,.T.);
#20=FACE_BOUND('',#118,.T.);
#21=FACE_BOUND('',#121,.T.);
#22=FACE_BOUND('',#124,.T.);
#23=CIRCLE('',#524,3.);
#24=CIRCLE('',#525,3.);
#25=CIRCLE('',#526,3.);
#26=CIRCLE('',#527,3.);
#27=CIRCLE('',#548,3.);
#28=CIRCLE('',#550,1.6);
#29=CIRCLE('',#552,3.);
#30=CIRCLE('',#554,1.6);
#31=CIRCLE('',#556,3.);
#32=CIRCLE('',#558,1.6);
#33=CIRCLE('',#560,3.);
#34=CIRCLE('',#562,1.6);
#35=CIRCLE('',#564,1.6);
#36=CIRCLE('',#566,1.6);
#37=CIRCLE('',#568,1.6);
#38=CIRCLE('',#570,1.6);
#39=PLANE('',#518);
#40=PLANE('',#519);
#41=PLANE('',#520);
#42=PLANE('',#532);
#43=PLANE('',#533);
#44=PLANE('',#538);
#45=PLANE('',#539);
#46=PLANE('',#544);
#47=PLANE('',#545);
#48=PLANE('',#546);
#49=PLANE('',#549);
#50=PLANE('',#553);
#51=PLANE('',#557);
#52=PLANE('',#561);
#53=PLANE('',#563);
#54=PLANE('',#565);
#55=PLANE('',#567);
#56=PLANE('',#569);
#57=FACE_OUTER_BOUND('',#91,.T.);
#58=FACE_OUTER_BOUND('',#92,.T.);
#59=FACE_OUTER_BOUND('',#93,.T.);
#60=FACE_OUTER_BOUND('',#94,.T.);
#61=FACE_OUTER_BOUND('',#95,.T.);
#62=FACE_OUTER_BOUND('',#100,.T.);
#63=FACE_OUTER_BOUND('',#101,.T.);
#64=FACE_OUTER_BOUND('',#102,.T.);
#65=FACE_OUTER_BOUND('',#103,.T.);
#66=FACE_OUTER_BOUND('',#104,.T.);
#67=FACE_OUTER_BOUND('',#105,.T.);
#68=FACE_OUTER_BOUND('',#106,.T.);
#69=FACE_OUTER_BOUND('',#107,.T.);
#70=FACE_OUTER_BOUND('',#108,.T.);
#71=FACE_OUTER_BOUND('',#109,.T.);
#72=FACE_OUTER_BOUND('',#110,.T.);
#73=FACE_OUTER_BOUND('',#111,.T.);
#74=FACE_OUTER_BOUND('',#112,.T.);
#75=FACE_OUTER_BOUND('',#113,.T.);
#76=FACE_OUTER_BOUND('',#114,.T.);
#77=FACE_OUTER_BOUND('',#116,.T.);
#78=FACE_OUTER_BOUND('',#117,.T.);
#79=FACE_OUTER_BOUND('',#119,.T.);
#80=FACE_OUTER_BOUND('',#120,.T.);
#81=FACE_OUTER_BOUND('',#122,.T.);
#82=FACE_OUTER_BOUND('',#123,.T.);
#83=FACE_OUTER_BOUND('',#125,.T.);
#84=FACE_OUTER_BOUND('',#126,.T.);
#85=FACE_OUTER_BOUND('',#127,.T.);
#86=FACE_OUTER_BOUND('',#128,.T.);
#87=FACE_OUTER_BOUND('',#129,.T.);
#88=FACE_OUTER_BOUND('',#130,.T.);
#89=FACE_OUTER_BOUND('',#131,.T.);
#90=FACE_OUTER_BOUND('',#132,.T.);
#91=EDGE_LOOP('',(#321,#322,#323,#324));
#92=EDGE_LOOP('',(#325,#326,#327,#328));
#93=EDGE_LOOP('',(#329,#330,#331,#332));
#94=EDGE_LOOP('',(#333,#334,#335,#336));
#95=EDGE_LOOP('',(#337,#338,#339,#340,#341,#342,#343,#344));
#96=EDGE_LOOP('',(#345));
#97=EDGE_LOOP('',(#346));
#98=EDGE_LOOP('',(#347));
#99=EDGE_LOOP('',(#348));
#100=EDGE_LOOP('',(#349,#350,#351,#352));
#101=EDGE_LOOP('',(#353,#354,#355,#356));
#102=EDGE_LOOP('',(#357,#358,#359,#360));
#103=EDGE_LOOP('',(#361,#362,#363,#364));
#104=EDGE_LOOP('',(#365,#366,#367,#368));
#105=EDGE_LOOP('',(#369,#370,#371,#372));
#106=EDGE_LOOP('',(#373,#374,#375,#376));
#107=EDGE_LOOP('',(#377,#378,#379,#380));
#108=EDGE_LOOP('',(#381,#382,#383,#384));
#109=EDGE_LOOP('',(#385,#386,#387,#388));
#110=EDGE_LOOP('',(#389,#390,#391,#392));
#111=EDGE_LOOP('',(#393,#394,#395,#396,#397,#398,#399,#400));
#112=EDGE_LOOP('',(#401,#402,#403,#404));
#113=EDGE_LOOP('',(#405,#406,#407,#408));
#114=EDGE_LOOP('',(#409));
#115=EDGE_LOOP('',(#410));
#116=EDGE_LOOP('',(#411,#412,#413,#414));
#117=EDGE_LOOP('',(#415));
#118=EDGE_LOOP('',(#416));
#119=EDGE_LOOP('',(#417,#418,#419,#420));
#120=EDGE_LOOP('',(#421));
#121=EDGE_LOOP('',(#422));
#122=EDGE_LOOP('',(#423,#424,#425,#426));
#123=EDGE_LOOP('',(#427));
#124=EDGE_LOOP('',(#428));
#125=EDGE_LOOP('',(#429));
#126=EDGE_LOOP('',(#430));
#127=EDGE_LOOP('',(#431));
#128=EDGE_LOOP('',(#432));
#129=EDGE_LOOP('',(#433,#434,#435,#436));
#130=EDGE_LOOP('',(#437,#438,#439,#440));
#131=EDGE_LOOP('',(#441,#442,#443,#444));
#132=EDGE_LOOP('',(#445,#446,#447,#448));
#133=LINE('',#743,#169);
#134=LINE('',#746,#170);
#135=LINE('',#751,#171);
#136=LINE('',#752,#172);
#137=LINE('',#755,#173);
#138=LINE('',#757,#174);
#139=LINE('',#758,#175);
#140=LINE('',#761,#176);
#141=LINE('',#762,#177);
#142=LINE('',#765,#178);
#143=LINE('',#769,#179);
#144=LINE('',#773,#180);
#145=LINE('',#785,#181);
#146=LINE('',#790,#182);
#147=LINE('',#793,#183);
#148=LINE('',#795,#184);
#149=LINE('',#796,#185);
#150=LINE('',#798,#186);
#151=LINE('',#804,#187);
#152=LINE('',#806,#188);
#153=LINE('',#809,#189);
#154=LINE('',#811,#190);
#155=LINE('',#812,#191);
#156=LINE('',#814,#192);
#157=LINE('',#820,#193);
#158=LINE('',#822,#194);
#159=LINE('',#824,#195);
#160=LINE('',#825,#196);
#161=LINE('',#831,#197);
#162=LINE('',#838,#198);
#163=LINE('',#845,#199);
#164=LINE('',#852,#200);
#165=LINE('',#869,#201);
#166=LINE('',#871,#202);
#167=LINE('',#873,#203);
#168=LINE('',#875,#204);
#169=VECTOR('',#581,10.);
#170=VECTOR('',#584,10.);
#171=VECTOR('',#589,10.);
#172=VECTOR('',#590,10.);
#173=VECTOR('',#593,10.);
#174=VECTOR('',#594,10.);
#175=VECTOR('',#595,10.);
#176=VECTOR('',#598,10.);
#177=VECTOR('',#599,10.);
#178=VECTOR('',#602,10.);
#179=VECTOR('',#605,10.);
#180=VECTOR('',#608,10.);
#181=VECTOR('',#621,10.);
#182=VECTOR('',#628,10.);
#183=VECTOR('',#631,10.);
#184=VECTOR('',#632,10.);
#185=VECTOR('',#633,10.);
#186=VECTOR('',#636,10.);
#187=VECTOR('',#643,10.);
#188=VECTOR('',#646,10.);
#189=VECTOR('',#649,10.);
#190=VECTOR('',#650,10.);
#191=VECTOR('',#651,10.);
#192=VECTOR('',#654,10.);
#193=VECTOR('',#661,10.);
#194=VECTOR('',#664,10.);
#195=VECTOR('',#667,10.);
#196=VECTOR('',#668,10.);
#197=VECTOR('',#677,3.);
#198=VECTOR('',#686,3.);
#199=VECTOR('',#695,3.);
#200=VECTOR('',#704,3.);
#201=VECTOR('',#727,1.6);
#202=VECTOR('',#730,1.6);
#203=VECTOR('',#733,1.6);
#204=VECTOR('',#736,1.6);
#205=ELLIPSE('',#514,17.3205080756888,10.);
#206=ELLIPSE('',#515,17.3205080756888,10.);
#207=ELLIPSE('',#517,17.3205080756888,10.);
#208=ELLIPSE('',#521,17.3205080756888,10.);
#209=ELLIPSE('',#522,17.3205080756888,10.);
#210=ELLIPSE('',#523,17.3205080756888,10.);
#211=ELLIPSE('',#529,17.3205080756888,10.);
#212=ELLIPSE('',#531,17.3205080756888,10.);
#213=ELLIPSE('',#535,17.3205080756888,10.);
#214=ELLIPSE('',#536,17.3205080756888,10.);
#215=ELLIPSE('',#541,17.3205080756888,10.);
#216=ELLIPSE('',#542,17.3205080756888,10.);
#217=VERTEX_POINT('',#739);
#218=VERTEX_POINT('',#740);
#219=VERTEX_POINT('',#742);
#220=VERTEX_POINT('',#744);
#221=VERTEX_POINT('',#748);
#222=VERTEX_POINT('',#749);
#223=VERTEX_POINT('',#754);
#224=VERTEX_POINT('',#756);
#225=VERTEX_POINT('',#760);
#226=VERTEX_POINT('',#764);
#227=VERTEX_POINT('',#766);
#228=VERTEX_POINT('',#768);
#229=VERTEX_POINT('',#770);
#230=VERTEX_POINT('',#772);
#231=VERTEX_POINT('',#775);
#232=VERTEX_POINT('',#777);
#233=VERTEX_POINT('',#779);
#234=VERTEX_POINT('',#781);
#235=VERTEX_POINT('',#784);
#236=VERTEX_POINT('',#788);
#237=VERTEX_POINT('',#792);
#238=VERTEX_POINT('',#794);
#239=VERTEX_POINT('',#800);
#240=VERTEX_POINT('',#802);
#241=VERTEX_POINT('',#808);
#242=VERTEX_POINT('',#810);
#243=VERTEX_POINT('',#816);
#244=VERTEX_POINT('',#818);
#245=VERTEX_POINT('',#829);
#246=VERTEX_POINT('',#833);
#247=VERTEX_POINT('',#836);
#248=VERTEX_POINT('',#840);
#249=VERTEX_POINT('',#843);
#250=VERTEX_POINT('',#847);
#251=VERTEX_POINT('',#850);
#252=VERTEX_POINT('',#854);
#253=VERTEX_POINT('',#857);
#254=VERTEX_POINT('',#860);
#255=VERTEX_POINT('',#863);
#256=VERTEX_POINT('',#866);
#257=EDGE_CURVE('',#217,#218,#205,.T.);
#258=EDGE_CURVE('',#218,#219,#133,.T.);
#259=EDGE_CURVE('',#219,#220,#206,.T.);
#260=EDGE_CURVE('',#220,#217,#134,.T.);
#261=EDGE_CURVE('',#221,#222,#207,.T.);
#262=EDGE_CURVE('',#222,#220,#135,.T.);
#263=EDGE_CURVE('',#219,#221,#136,.T.);
#264=EDGE_CURVE('',#223,#219,#137,.T.);
#265=EDGE_CURVE('',#224,#223,#138,.T.);
#266=EDGE_CURVE('',#224,#221,#139,.T.);
#267=EDGE_CURVE('',#218,#225,#140,.T.);
#268=EDGE_CURVE('',#223,#225,#141,.T.);
#269=EDGE_CURVE('',#226,#217,#142,.T.);
#270=EDGE_CURVE('',#227,#226,#208,.T.);
#271=EDGE_CURVE('',#228,#227,#143,.T.);
#272=EDGE_CURVE('',#229,#228,#209,.T.);
#273=EDGE_CURVE('',#230,#229,#144,.T.);
#274=EDGE_CURVE('',#225,#230,#210,.T.);
#275=EDGE_CURVE('',#231,#231,#23,.T.);
#276=EDGE_CURVE('',#232,#232,#24,.T.);
#277=EDGE_CURVE('',#233,#233,#25,.T.);
#278=EDGE_CURVE('',#234,#234,#26,.T.);
#279=EDGE_CURVE('',#230,#235,#145,.T.);
#280=EDGE_CURVE('',#235,#223,#211,.T.);
#281=EDGE_CURVE('',#236,#224,#212,.T.);
#282=EDGE_CURVE('',#235,#236,#146,.T.);
#283=EDGE_CURVE('',#237,#235,#147,.T.);
#284=EDGE_CURVE('',#238,#237,#148,.T.);
#285=EDGE_CURVE('',#238,#236,#149,.T.);
#286=EDGE_CURVE('',#237,#229,#150,.T.);
#287=EDGE_CURVE('',#239,#238,#213,.T.);
#288=EDGE_CURVE('',#237,#240,#214,.T.);
#289=EDGE_CURVE('',#240,#239,#151,.T.);
#290=EDGE_CURVE('',#228,#240,#152,.T.);
#291=EDGE_CURVE('',#241,#240,#153,.T.);
#292=EDGE_CURVE('',#242,#241,#154,.T.);
#293=EDGE_CURVE('',#242,#239,#155,.T.);
#294=EDGE_CURVE('',#241,#227,#156,.T.);
#295=EDGE_CURVE('',#243,#242,#215,.T.);
#296=EDGE_CURVE('',#241,#244,#216,.T.);
#297=EDGE_CURVE('',#244,#243,#157,.T.);
#298=EDGE_CURVE('',#226,#244,#158,.T.);
#299=EDGE_CURVE('',#222,#243,#159,.T.);
#300=EDGE_CURVE('',#220,#244,#160,.T.);
#301=EDGE_CURVE('',#245,#245,#27,.T.);
#302=EDGE_CURVE('',#245,#234,#161,.T.);
#303=EDGE_CURVE('',#246,#246,#28,.T.);
#304=EDGE_CURVE('',#247,#247,#29,.T.);
#305=EDGE_CURVE('',#247,#233,#162,.T.);
#306=EDGE_CURVE('',#248,#248,#30,.T.);
#307=EDGE_CURVE('',#249,#249,#31,.T.);
#308=EDGE_CURVE('',#249,#232,#163,.T.);
#309=EDGE_CURVE('',#250,#250,#32,.T.);
#310=EDGE_CURVE('',#251,#251,#33,.T.);
#311=EDGE_CURVE('',#251,#231,#164,.T.);
#312=EDGE_CURVE('',#252,#252,#34,.T.);
#313=EDGE_CURVE('',#253,#253,#35,.T.);
#314=EDGE_CURVE('',#254,#254,#36,.T.);
#315=EDGE_CURVE('',#255,#255,#37,.T.);
#316=EDGE_CURVE('',#256,#256,#38,.T.);
#317=EDGE_CURVE('',#250,#256,#165,.T.);
#318=EDGE_CURVE('',#246,#255,#166,.T.);
#319=EDGE_CURVE('',#252,#254,#167,.T.);
#320=EDGE_CURVE('',#248,#253,#168,.T.);
#321=ORIENTED_EDGE('',*,*,#257,.T.);
#322=ORIENTED_EDGE('',*,*,#258,.T.);
#323=ORIENTED_EDGE('',*,*,#259,.T.);
#324=ORIENTED_EDGE('',*,*,#260,.T.);
#325=ORIENTED_EDGE('',*,*,#261,.T.);
#326=ORIENTED_EDGE('',*,*,#262,.T.);
#327=ORIENTED_EDGE('',*,*,#259,.F.);
#328=ORIENTED_EDGE('',*,*,#263,.T.);
#329=ORIENTED_EDGE('',*,*,#263,.F.);
#330=ORIENTED_EDGE('',*,*,#264,.F.);
#331=ORIENTED_EDGE('',*,*,#265,.F.);
#332=ORIENTED_EDGE('',*,*,#266,.T.);
#333=ORIENTED_EDGE('',*,*,#258,.F.);
#334=ORIENTED_EDGE('',*,*,#267,.T.);
#335=ORIENTED_EDGE('',*,*,#268,.F.);
#336=ORIENTED_EDGE('',*,*,#264,.T.);
#337=ORIENTED_EDGE('',*,*,#257,.F.);
#338=ORIENTED_EDGE('',*,*,#269,.F.);
#339=ORIENTED_EDGE('',*,*,#270,.F.);
#340=ORIENTED_EDGE('',*,*,#271,.F.);
#341=ORIENTED_EDGE('',*,*,#272,.F.);
#342=ORIENTED_EDGE('',*,*,#273,.F.);
#343=ORIENTED_EDGE('',*,*,#274,.F.);
#344=ORIENTED_EDGE('',*,*,#267,.F.);
#345=ORIENTED_EDGE('',*,*,#275,.T.);
#346=ORIENTED_EDGE('',*,*,#276,.T.);
#347=ORIENTED_EDGE('',*,*,#277,.T.);
#348=ORIENTED_EDGE('',*,*,#278,.T.);
#349=ORIENTED_EDGE('',*,*,#274,.T.);
#350=ORIENTED_EDGE('',*,*,#279,.T.);
#351=ORIENTED_EDGE('',*,*,#280,.T.);
#352=ORIENTED_EDGE('',*,*,#268,.T.);
#353=ORIENTED_EDGE('',*,*,#281,.T.);
#354=ORIENTED_EDGE('',*,*,#265,.T.);
#355=ORIENTED_EDGE('',*,*,#280,.F.);
#356=ORIENTED_EDGE('',*,*,#282,.T.);
#357=ORIENTED_EDGE('',*,*,#282,.F.);
#358=ORIENTED_EDGE('',*,*,#283,.F.);
#359=ORIENTED_EDGE('',*,*,#284,.F.);
#360=ORIENTED_EDGE('',*,*,#285,.T.);
#361=ORIENTED_EDGE('',*,*,#279,.F.);
#362=ORIENTED_EDGE('',*,*,#273,.T.);
#363=ORIENTED_EDGE('',*,*,#286,.F.);
#364=ORIENTED_EDGE('',*,*,#283,.T.);
#365=ORIENTED_EDGE('',*,*,#287,.T.);
#366=ORIENTED_EDGE('',*,*,#284,.T.);
#367=ORIENTED_EDGE('',*,*,#288,.T.);
#368=ORIENTED_EDGE('',*,*,#289,.T.);
#369=ORIENTED_EDGE('',*,*,#272,.T.);
#370=ORIENTED_EDGE('',*,*,#290,.T.);
#371=ORIENTED_EDGE('',*,*,#288,.F.);
#372=ORIENTED_EDGE('',*,*,#286,.T.);
#373=ORIENTED_EDGE('',*,*,#289,.F.);
#374=ORIENTED_EDGE('',*,*,#291,.F.);
#375=ORIENTED_EDGE('',*,*,#292,.F.);
#376=ORIENTED_EDGE('',*,*,#293,.T.);
#377=ORIENTED_EDGE('',*,*,#290,.F.);
#378=ORIENTED_EDGE('',*,*,#271,.T.);
#379=ORIENTED_EDGE('',*,*,#294,.F.);
#380=ORIENTED_EDGE('',*,*,#291,.T.);
#381=ORIENTED_EDGE('',*,*,#295,.T.);
#382=ORIENTED_EDGE('',*,*,#292,.T.);
#383=ORIENTED_EDGE('',*,*,#296,.T.);
#384=ORIENTED_EDGE('',*,*,#297,.T.);
#385=ORIENTED_EDGE('',*,*,#270,.T.);
#386=ORIENTED_EDGE('',*,*,#298,.T.);
#387=ORIENTED_EDGE('',*,*,#296,.F.);
#388=ORIENTED_EDGE('',*,*,#294,.T.);
#389=ORIENTED_EDGE('',*,*,#262,.F.);
#390=ORIENTED_EDGE('',*,*,#299,.T.);
#391=ORIENTED_EDGE('',*,*,#297,.F.);
#392=ORIENTED_EDGE('',*,*,#300,.F.);
#393=ORIENTED_EDGE('',*,*,#261,.F.);
#394=ORIENTED_EDGE('',*,*,#266,.F.);
#395=ORIENTED_EDGE('',*,*,#281,.F.);
#396=ORIENTED_EDGE('',*,*,#285,.F.);
#397=ORIENTED_EDGE('',*,*,#287,.F.);
#398=ORIENTED_EDGE('',*,*,#293,.F.);
#399=ORIENTED_EDGE('',*,*,#295,.F.);
#400=ORIENTED_EDGE('',*,*,#299,.F.);
#401=ORIENTED_EDGE('',*,*,#260,.F.);
#402=ORIENTED_EDGE('',*,*,#300,.T.);
#403=ORIENTED_EDGE('',*,*,#298,.F.);
#404=ORIENTED_EDGE('',*,*,#269,.T.);
#405=ORIENTED_EDGE('',*,*,#301,.F.);
#406=ORIENTED_EDGE('',*,*,#302,.T.);
#407=ORIENTED_EDGE('',*,*,#278,.F.);
#408=ORIENTED_EDGE('',*,*,#302,.F.);
#409=ORIENTED_EDGE('',*,*,#301,.T.);
#410=ORIENTED_EDGE('',*,*,#303,.T.);
#411=ORIENTED_EDGE('',*,*,#304,.F.);
#412=ORIENTED_EDGE('',*,*,#305,.T.);
#413=ORIENTED_EDGE('',*,*,#277,.F.);
#414=ORIENTED_EDGE('',*,*,#305,.F.);
#415=ORIENTED_EDGE('',*,*,#304,.T.);
#416=ORIENTED_EDGE('',*,*,#306,.T.);
#417=ORIENTED_EDGE('',*,*,#307,.F.);
#418=ORIENTED_EDGE('',*,*,#308,.T.);
#419=ORIENTED_EDGE('',*,*,#276,.F.);
#420=ORIENTED_EDGE('',*,*,#308,.F.);
#421=ORIENTED_EDGE('',*,*,#307,.T.);
#422=ORIENTED_EDGE('',*,*,#309,.T.);
#423=ORIENTED_EDGE('',*,*,#310,.F.);
#424=ORIENTED_EDGE('',*,*,#311,.T.);
#425=ORIENTED_EDGE('',*,*,#275,.F.);
#426=ORIENTED_EDGE('',*,*,#311,.F.);
#427=ORIENTED_EDGE('',*,*,#310,.T.);
#428=ORIENTED_EDGE('',*,*,#312,.T.);
#429=ORIENTED_EDGE('',*,*,#313,.F.);
#430=ORIENTED_EDGE('',*,*,#314,.F.);
#431=ORIENTED_EDGE('',*,*,#315,.F.);
#432=ORIENTED_EDGE('',*,*,#316,.F.);
#433=ORIENTED_EDGE('',*,*,#309,.F.);
#434=ORIENTED_EDGE('',*,*,#317,.T.);
#435=ORIENTED_EDGE('',*,*,#316,.T.);
#436=ORIENTED_EDGE('',*,*,#317,.F.);
#437=ORIENTED_EDGE('',*,*,#303,.F.);
#438=ORIENTED_EDGE('',*,*,#318,.T.);
#439=ORIENTED_EDGE('',*,*,#315,.T.);
#440=ORIENTED_EDGE('',*,*,#318,.F.);
#441=ORIENTED_EDGE('',*,*,#312,.F.);
#442=ORIENTED_EDGE('',*,*,#319,.T.);
#443=ORIENTED_EDGE('',*,*,#314,.T.);
#444=ORIENTED_EDGE('',*,*,#319,.F.);
#445=ORIENTED_EDGE('',*,*,#306,.F.);
#446=ORIENTED_EDGE('',*,*,#320,.T.);
#447=ORIENTED_EDGE('',*,*,#313,.T.);
#448=ORIENTED_EDGE('',*,*,#320,.F.);
#449=CYLINDRICAL_SURFACE('',#513,10.);
#450=CYLINDRICAL_SURFACE('',#516,10.);
#451=CYLINDRICAL_SURFACE('',#528,10.);
#452=CYLINDRICAL_SURFACE('',#530,10.);
#453=CYLINDRICAL_SURFACE('',#534,10.);
#454=CYLINDRICAL_SURFACE('',#537,10.);
#455=CYLINDRICAL_SURFACE('',#540,10.);
#456=CYLINDRICAL_SURFACE('',#543,10.);
#457=CYLINDRICAL_SURFACE('',#547,3.);
#458=CYLINDRICAL_SURFACE('',#551,3.);
#459=CYLINDRICAL_SURFACE('',#555,3.);
#460=CYLINDRICAL_SURFACE('',#559,3.);
#461=CYLINDRICAL_SURFACE('',#571,1.6);
#462=CYLINDRICAL_SURFACE('',#572,1.6);
#463=CYLINDRICAL_SURFACE('',#573,1.6);
#464=CYLINDRICAL_SURFACE('',#574,1.6);
#465=ADVANCED_FACE('',(#57),#449,.T.);
#466=ADVANCED_FACE('',(#58),#450,.T.);
#467=ADVANCED_FACE('',(#59),#39,.T.);
#468=ADVANCED_FACE('',(#60),#40,.T.);
#469=ADVANCED_FACE('',(#61,#15,#16,#17,#18),#41,.T.);
#470=ADVANCED_FACE('',(#62),#451,.T.);
#471=ADVANCED_FACE('',(#63),#452,.T.);
#472=ADVANCED_FACE('',(#64),#42,.T.);
#473=ADVANCED_FACE('',(#65),#43,.T.);
#474=ADVANCED_FACE('',(#66),#453,.T.);
#475=ADVANCED_FACE('',(#67),#454,.T.);
#476=ADVANCED_FACE('',(#68),#44,.T.);
#477=ADVANCED_FACE('',(#69),#45,.T.);
#478=ADVANCED_FACE('',(#70),#455,.T.);
#479=ADVANCED_FACE('',(#71),#456,.T.);
#480=ADVANCED_FACE('',(#72),#46,.T.);
#481=ADVANCED_FACE('',(#73),#47,.T.);
#482=ADVANCED_FACE('',(#74),#48,.T.);
#483=ADVANCED_FACE('',(#75),#457,.T.);
#484=ADVANCED_FACE('',(#76,#19),#49,.T.);
#485=ADVANCED_FACE('',(#77),#458,.T.);
#486=ADVANCED_FACE('',(#78,#20),#50,.T.);
#487=ADVANCED_FACE('',(#79),#459,.T.);
#488=ADVANCED_FACE('',(#80,#21),#51,.T.);
#489=ADVANCED_FACE('',(#81),#460,.T.);
#490=ADVANCED_FACE('',(#82,#22),#52,.T.);
#491=ADVANCED_FACE('',(#83),#53,.F.);
#492=ADVANCED_FACE('',(#84),#54,.F.);
#493=ADVANCED_FACE('',(#85),#55,.F.);
#494=ADVANCED_FACE('',(#86),#56,.F.);
#495=ADVANCED_FACE('',(#87),#461,.F.);
#496=ADVANCED_FACE('',(#88),#462,.F.);
#497=ADVANCED_FACE('',(#89),#463,.F.);
#498=ADVANCED_FACE('',(#90),#464,.F.);
#499=CLOSED_SHELL('',(#465,#466,#467,#468,#469,#470,#471,#472,#473,#474,
#475,#476,#477,#478,#479,#480,#481,#482,#483,#484,#485,#486,#487,#488,#489,
#490,#491,#492,#493,#494,#495,#496,#497,#498));
#500=DERIVED_UNIT_ELEMENT(#502,1.);
#501=DERIVED_UNIT_ELEMENT(#881,-3.);
#502=(
MASS_UNIT()
NAMED_UNIT(*)
SI_UNIT(.KILO.,.GRAM.)
);
#503=DERIVED_UNIT((#500,#501));
#504=MEASURE_REPRESENTATION_ITEM('density measure',
POSITIVE_RATIO_MEASURE(7850.),#503);
#505=PROPERTY_DEFINITION_REPRESENTATION(#510,#507);
#506=PROPERTY_DEFINITION_REPRESENTATION(#511,#508);
#507=REPRESENTATION('material name',(#509),#878);
#508=REPRESENTATION('density',(#504),#878);
#509=DESCRIPTIVE_REPRESENTATION_ITEM('Steel','Steel');
#510=PROPERTY_DEFINITION('material property','material name',#888);
#511=PROPERTY_DEFINITION('material property','density of part',#888);
#512=AXIS2_PLACEMENT_3D('',#737,#575,#576);
#513=AXIS2_PLACEMENT_3D('',#738,#577,#578);
#514=AXIS2_PLACEMENT_3D('',#741,#579,#580);
#515=AXIS2_PLACEMENT_3D('',#745,#582,#583);
#516=AXIS2_PLACEMENT_3D('',#747,#585,#586);
#517=AXIS2_PLACEMENT_3D('',#750,#587,#588);
#518=AXIS2_PLACEMENT_3D('',#753,#591,#592);
#519=AXIS2_PLACEMENT_3D('',#759,#596,#597);
#520=AXIS2_PLACEMENT_3D('',#763,#600,#601);
#521=AXIS2_PLACEMENT_3D('',#767,#603,#604);
#522=AXIS2_PLACEMENT_3D('',#771,#606,#607);
#523=AXIS2_PLACEMENT_3D('',#774,#609,#610);
#524=AXIS2_PLACEMENT_3D('',#776,#611,#612);
#525=AXIS2_PLACEMENT_3D('',#778,#613,#614);
#526=AXIS2_PLACEMENT_3D('',#780,#615,#616);
#527=AXIS2_PLACEMENT_3D('',#782,#617,#618);
#528=AXIS2_PLACEMENT_3D('',#783,#619,#620);
#529=AXIS2_PLACEMENT_3D('',#786,#622,#623);
#530=AXIS2_PLACEMENT_3D('',#787,#624,#625);
#531=AXIS2_PLACEMENT_3D('',#789,#626,#627);
#532=AXIS2_PLACEMENT_3D('',#791,#629,#630);
#533=AXIS2_PLACEMENT_3D('',#797,#634,#635);
#534=AXIS2_PLACEMENT_3D('',#799,#637,#638);
#535=AXIS2_PLACEMENT_3D('',#801,#639,#640);
#536=AXIS2_PLACEMENT_3D('',#803,#641,#642);
#537=AXIS2_PLACEMENT_3D('',#805,#644,#645);
#538=AXIS2_PLACEMENT_3D('',#807,#647,#648);
#539=AXIS2_PLACEMENT_3D('',#813,#652,#653);
#540=AXIS2_PLACEMENT_3D('',#815,#655,#656);
#541=AXIS2_PLACEMENT_3D('',#817,#657,#658);
#542=AXIS2_PLACEMENT_3D('',#819,#659,#660);
#543=AXIS2_PLACEMENT_3D('',#821,#662,#663);
#544=AXIS2_PLACEMENT_3D('',#823,#665,#666);
#545=AXIS2_PLACEMENT_3D('',#826,#669,#670);
#546=AXIS2_PLACEMENT_3D('',#827,#671,#672);
#547=AXIS2_PLACEMENT_3D('',#828,#673,#674);
#548=AXIS2_PLACEMENT_3D('',#830,#675,#676);
#549=AXIS2_PLACEMENT_3D('',#832,#678,#679);
#550=AXIS2_PLACEMENT_3D('',#834,#680,#681);
#551=AXIS2_PLACEMENT_3D('',#835,#682,#683);
#552=AXIS2_PLACEMENT_3D('',#837,#684,#685);
#553=AXIS2_PLACEMENT_3D('',#839,#687,#688);
#554=AXIS2_PLACEMENT_3D('',#841,#689,#690);
#555=AXIS2_PLACEMENT_3D('',#842,#691,#692);
#556=AXIS2_PLACEMENT_3D('',#844,#693,#694);
#557=AXIS2_PLACEMENT_3D('',#846,#696,#697);
#558=AXIS2_PLACEMENT_3D('',#848,#698,#699);
#559=AXIS2_PLACEMENT_3D('',#849,#700,#701);
#560=AXIS2_PLACEMENT_3D('',#851,#702,#703);
#561=AXIS2_PLACEMENT_3D('',#853,#705,#706);
#562=AXIS2_PLACEMENT_3D('',#855,#707,#708);
#563=AXIS2_PLACEMENT_3D('',#856,#709,#710);
#564=AXIS2_PLACEMENT_3D('',#858,#711,#712);
#565=AXIS2_PLACEMENT_3D('',#859,#713,#714);
#566=AXIS2_PLACEMENT_3D('',#861,#715,#716);
#567=AXIS2_PLACEMENT_3D('',#862,#717,#718);
#568=AXIS2_PLACEMENT_3D('',#864,#719,#720);
#569=AXIS2_PLACEMENT_3D('',#865,#721,#722);
#570=AXIS2_PLACEMENT_3D('',#867,#723,#724);
#571=AXIS2_PLACEMENT_3D('',#868,#725,#726);
#572=AXIS2_PLACEMENT_3D('',#870,#728,#729);
#573=AXIS2_PLACEMENT_3D('',#872,#731,#732);
#574=AXIS2_PLACEMENT_3D('',#874,#734,#735);
#575=DIRECTION('axis',(0.,0.,1.));
#576=DIRECTION('refdir',(1.,0.,0.));
#577=DIRECTION('center_axis',(-0.577350269189626,-0.577350269189626,-0.577350269189625));
#578=DIRECTION('ref_axis',(-0.408248290463862,-0.408248290463863,0.816496580927726));
#579=DIRECTION('center_axis',(0.,0.,-1.));
#580=DIRECTION('ref_axis',(-0.707106781186547,-0.707106781186548,0.));
#581=DIRECTION('',(-0.577350269189626,-0.577350269189626,-0.577350269189625));
#582=DIRECTION('center_axis',(-1.04672830578918E-16,-1.04672830578918E-16,
1.));
#583=DIRECTION('ref_axis',(0.707106781186548,0.707106781186548,1.48029736616687E-16));
#584=DIRECTION('',(0.577350269189626,0.577350269189626,0.577350269189625));
#585=DIRECTION('center_axis',(-0.577350269189626,-0.577350269189626,0.577350269189625));
#586=DIRECTION('ref_axis',(-0.408248290463862,-0.408248290463863,-0.816496580927726));
#587=DIRECTION('center_axis',(0.,0.,1.));
#588=DIRECTION('ref_axis',(-0.707106781186547,-0.707106781186548,0.));
#589=DIRECTION('',(-0.577350269189626,-0.577350269189626,0.577350269189625));
#590=DIRECTION('',(0.577350269189626,0.577350269189626,-0.577350269189625));
#591=DIRECTION('center_axis',(-0.707106781186547,0.,-0.707106781186548));
#592=DIRECTION('ref_axis',(-0.707106781186548,0.,0.707106781186547));
#593=DIRECTION('',(0.,-1.,0.));
#594=DIRECTION('',(-0.577350269189626,0.577350269189626,0.577350269189625));
#595=DIRECTION('',(0.,-1.,0.));
#596=DIRECTION('center_axis',(-0.707106781186547,0.,0.707106781186548));
#597=DIRECTION('ref_axis',(0.707106781186548,0.,0.707106781186547));
#598=DIRECTION('',(0.,1.,0.));
#599=DIRECTION('',(0.577350269189626,-0.577350269189626,0.577350269189625));
#600=DIRECTION('center_axis',(0.,0.,1.));
#601=DIRECTION('ref_axis',(1.,0.,0.));
#602=DIRECTION('',(-1.,0.,0.));
#603=DIRECTION('center_axis',(0.,0.,-1.));
#604=DIRECTION('ref_axis',(0.707106781186547,-0.707106781186548,0.));
#605=DIRECTION('',(0.,-1.,0.));
#606=DIRECTION('center_axis',(0.,0.,-1.));
#607=DIRECTION('ref_axis',(0.707106781186547,0.707106781186548,0.));
#608=DIRECTION('',(1.,0.,0.));
#609=DIRECTION('center_axis',(0.,0.,-1.));
#610=DIRECTION('ref_axis',(-0.707106781186547,0.707106781186548,0.));
#611=DIRECTION('center_axis',(0.,0.,-1.));
#612=DIRECTION('ref_axis',(-1.,0.,0.));
#613=DIRECTION('center_axis',(0.,0.,-1.));
#614=DIRECTION('ref_axis',(-1.,0.,0.));
#615=DIRECTION('center_axis',(0.,0.,-1.));
#616=DIRECTION('ref_axis',(-1.,0.,0.));
#617=DIRECTION('center_axis',(0.,0.,-1.));
#618=DIRECTION('ref_axis',(-1.,0.,0.));
#619=DIRECTION('center_axis',(-0.577350269189626,0.577350269189626,-0.577350269189625));
#620=DIRECTION('ref_axis',(-0.408248290463863,0.408248290463863,0.816496580927726));
#621=DIRECTION('',(-0.577350269189626,0.577350269189626,-0.577350269189625));
#622=DIRECTION('center_axis',(0.,0.,1.));
#623=DIRECTION('ref_axis',(0.707106781186548,-0.707106781186548,0.));
#624=DIRECTION('center_axis',(-0.577350269189626,0.577350269189626,0.577350269189625));
#625=DIRECTION('ref_axis',(-0.408248290463863,0.408248290463863,-0.816496580927726));
#626=DIRECTION('center_axis',(0.,0.,1.));
#627=DIRECTION('ref_axis',(-0.707106781186548,0.707106781186548,0.));
#628=DIRECTION('',(0.577350269189626,-0.577350269189626,-0.577350269189625));
#629=DIRECTION('center_axis',(0.,0.707106781186547,-0.707106781186548));
#630=DIRECTION('ref_axis',(-1.,0.,0.));
#631=DIRECTION('',(-1.,0.,0.));
#632=DIRECTION('',(0.577350269189626,0.577350269189626,0.577350269189625));
#633=DIRECTION('',(-1.,0.,0.));
#634=DIRECTION('center_axis',(0.,0.707106781186547,0.707106781186548));
#635=DIRECTION('ref_axis',(1.,0.,0.));
#636=DIRECTION('',(-0.577350269189626,-0.577350269189626,0.577350269189625));
#637=DIRECTION('center_axis',(0.577350269189626,0.577350269189626,0.577350269189625));
#638=DIRECTION('ref_axis',(0.408248290463862,0.408248290463863,-0.816496580927726));
#639=DIRECTION('center_axis',(0.,0.,1.));
#640=DIRECTION('ref_axis',(0.707106781186547,0.707106781186548,0.));
#641=DIRECTION('center_axis',(-1.57009245868378E-16,-1.57009245868377E-16,
-1.));
#642=DIRECTION('ref_axis',(-0.707106781186547,-0.707106781186547,2.22044604925031E-16));
#643=DIRECTION('',(-0.577350269189626,-0.577350269189626,-0.577350269189625));
#644=DIRECTION('center_axis',(0.577350269189626,0.577350269189626,-0.577350269189625));
#645=DIRECTION('ref_axis',(0.408248290463862,0.408248290463863,0.816496580927726));
#646=DIRECTION('',(0.577350269189626,0.577350269189626,-0.577350269189625));
#647=DIRECTION('center_axis',(0.707106781186547,0.,-0.707106781186548));
#648=DIRECTION('ref_axis',(-0.707106781186548,0.,-0.707106781186547));
#649=DIRECTION('',(0.,1.,0.));
#650=DIRECTION('',(0.577350269189626,-0.577350269189626,0.577350269189625));
#651=DIRECTION('',(0.,1.,0.));
#652=DIRECTION('center_axis',(0.707106781186547,0.,0.707106781186548));
#653=DIRECTION('ref_axis',(0.707106781186548,0.,-0.707106781186547));
#654=DIRECTION('',(-0.577350269189626,0.577350269189626,0.577350269189625));
#655=DIRECTION('center_axis',(0.577350269189626,-0.577350269189626,0.577350269189625));
#656=DIRECTION('ref_axis',(0.408248290463863,-0.408248290463863,-0.816496580927726));
#657=DIRECTION('center_axis',(0.,0.,1.));
#658=DIRECTION('ref_axis',(0.707106781186548,-0.707106781186548,0.));
#659=DIRECTION('center_axis',(-5.23364152894592E-17,5.23364152894591E-17,
-1.));
#660=DIRECTION('ref_axis',(-0.707106781186548,0.707106781186548,7.40148683083437E-17));
#661=DIRECTION('',(-0.577350269189626,0.577350269189626,-0.577350269189625));
#662=DIRECTION('center_axis',(0.577350269189626,-0.577350269189626,-0.577350269189625));
#663=DIRECTION('ref_axis',(0.408248290463863,-0.408248290463863,0.816496580927726));
#664=DIRECTION('',(0.577350269189626,-0.577350269189626,-0.577350269189625));
#665=DIRECTION('center_axis',(0.,-0.707106781186547,-0.707106781186548));
#666=DIRECTION('ref_axis',(-1.,0.,0.));
#667=DIRECTION('',(1.,0.,0.));
#668=DIRECTION('',(1.,0.,0.));
#669=DIRECTION('center_axis',(0.,0.,-1.));
#670=DIRECTION('ref_axis',(-1.,0.,0.));
#671=DIRECTION('center_axis',(0.,-0.707106781186547,0.707106781186548));
#672=DIRECTION('ref_axis',(1.,0.,0.));
#673=DIRECTION('center_axis',(0.,0.,1.));
#674=DIRECTION('ref_axis',(-1.,0.,0.));
#675=DIRECTION('center_axis',(0.,0.,1.));
#676=DIRECTION('ref_axis',(-1.,0.,0.));
#677=DIRECTION('',(0.,0.,-1.));
#678=DIRECTION('center_axis',(0.,0.,1.));
#679=DIRECTION('ref_axis',(-1.,0.,0.));
#680=DIRECTION('center_axis',(0.,0.,-1.));
#681=DIRECTION('ref_axis',(-1.,0.,0.));
#682=DIRECTION('center_axis',(0.,0.,1.));
#683=DIRECTION('ref_axis',(-1.,0.,0.));
#684=DIRECTION('center_axis',(0.,0.,1.));
#685=DIRECTION('ref_axis',(-1.,0.,0.));
#686=DIRECTION('',(0.,0.,-1.));
#687=DIRECTION('center_axis',(0.,0.,1.));
#688=DIRECTION('ref_axis',(-1.,0.,0.));
#689=DIRECTION('center_axis',(0.,0.,-1.));
#690=DIRECTION('ref_axis',(-1.,0.,0.));
#691=DIRECTION('center_axis',(0.,0.,1.));
#692=DIRECTION('ref_axis',(-1.,0.,0.));
#693=DIRECTION('center_axis',(0.,0.,1.));
#694=DIRECTION('ref_axis',(-1.,0.,0.));
#695=DIRECTION('',(0.,0.,-1.));
#696=DIRECTION('center_axis',(0.,0.,1.));
#697=DIRECTION('ref_axis',(-1.,0.,0.));
#698=DIRECTION('center_axis',(0.,0.,-1.));
#699=DIRECTION('ref_axis',(-1.,0.,0.));
#700=DIRECTION('center_axis',(0.,0.,1.));
#701=DIRECTION('ref_axis',(-1.,0.,0.));
#702=DIRECTION('center_axis',(0.,0.,1.));
#703=DIRECTION('ref_axis',(-1.,0.,0.));
#704=DIRECTION('',(0.,0.,-1.));
#705=DIRECTION('center_axis',(0.,0.,1.));
#706=DIRECTION('ref_axis',(-1.,0.,0.));
#707=DIRECTION('center_axis',(0.,0.,-1.));
#708=DIRECTION('ref_axis',(-1.,0.,0.));
#709=DIRECTION('center_axis',(0.,0.,-1.));
#710=DIRECTION('ref_axis',(1.,0.,0.));
#711=DIRECTION('center_axis',(0.,0.,-1.));
#712=DIRECTION('ref_axis',(1.,0.,0.));
#713=DIRECTION('center_axis',(0.,0.,-1.));
#714=DIRECTION('ref_axis',(1.,0.,0.));
#715=DIRECTION('center_axis',(0.,0.,-1.));
#716=DIRECTION('ref_axis',(1.,0.,0.));
#717=DIRECTION('center_axis',(0.,0.,-1.));
#718=DIRECTION('ref_axis',(1.,0.,0.));
#719=DIRECTION('center_axis',(0.,0.,-1.));
#720=DIRECTION('ref_axis',(1.,0.,0.));
#721=DIRECTION('center_axis',(0.,0.,-1.));
#722=DIRECTION('ref_axis',(1.,0.,0.));
#723=DIRECTION('center_axis',(0.,0.,-1.));
#724=DIRECTION('ref_axis',(1.,0.,0.));
#725=DIRECTION('center_axis',(0.,0.,1.));
#726=DIRECTION('ref_axis',(1.,0.,0.));
#727=DIRECTION('',(0.,0.,-1.));
#728=DIRECTION('center_axis',(0.,0.,1.));
#729=DIRECTION('ref_axis',(1.,0.,0.));
#730=DIRECTION('',(0.,0.,-1.));
#731=DIRECTION('center_axis',(0.,0.,1.));
#732=DIRECTION('ref_axis',(1.,0.,0.));
#733=DIRECTION('',(0.,0.,-1.));
#734=DIRECTION('center_axis',(0.,0.,1.));
#735=DIRECTION('ref_axis',(1.,0.,0.));
#736=DIRECTION('',(0.,0.,-1.));
#737=CARTESIAN_POINT('',(0.,0.,0.));
#738=CARTESIAN_POINT('Origin',(-37.3234547920897,-13.1734547920897,3.53440958417936));
#739=CARTESIAN_POINT('',(-45.9289321881345,-28.85,2.));
#740=CARTESIAN_POINT('',(-53.,-21.7789321881345,2.));
#741=CARTESIAN_POINT('Origin',(-38.857864376269,-14.707864376269,2.));
#742=CARTESIAN_POINT('',(-55.,-23.7789321881345,0.));
#743=CARTESIAN_POINT('',(-44.3945226039552,-13.1734547920897,10.6054773960448));
#744=CARTESIAN_POINT('',(-47.9289321881345,-30.85,0.));
#745=CARTESIAN_POINT('Origin',(-40.857864376269,-16.7078643762691,2.22044604925031E-15));
#746=CARTESIAN_POINT('',(-37.3234547920897,-20.2445226039552,10.6054773960448));
#747=CARTESIAN_POINT('Origin',(-37.3234547920897,-13.1734547920897,-3.53440958417936));
#748=CARTESIAN_POINT('',(-53.,-21.7789321881345,-2.));
#749=CARTESIAN_POINT('',(-45.9289321881345,-28.85,-2.));
#750=CARTESIAN_POINT('Origin',(-38.857864376269,-14.707864376269,-2.));
#751=CARTESIAN_POINT('',(-37.3234547920897,-20.2445226039552,-10.6054773960448));
#752=CARTESIAN_POINT('',(-44.3945226039552,-13.1734547920897,-10.6054773960448));
#753=CARTESIAN_POINT('Origin',(-54.,15.425,-1.));
#754=CARTESIAN_POINT('',(-55.,23.7789321881345,0.));
#755=CARTESIAN_POINT('',(-55.,15.425,0.));
#756=CARTESIAN_POINT('',(-53.,21.7789321881345,-2.));
#757=CARTESIAN_POINT('',(-40.3695226039552,9.14845479208968,-14.6304773960448));
#758=CARTESIAN_POINT('',(-53.,15.425,-2.));
#759=CARTESIAN_POINT('Origin',(-54.,15.425,1.));
#760=CARTESIAN_POINT('',(-53.,21.7789321881345,2.));
#761=CARTESIAN_POINT('',(-53.,15.425,2.));
#762=CARTESIAN_POINT('',(-40.3695226039552,9.14845479208968,14.6304773960448));
#763=CARTESIAN_POINT('Origin',(0.,0.,2.));
#764=CARTESIAN_POINT('',(45.9289321881345,-28.85,2.));
#765=CARTESIAN_POINT('',(-27.5,-28.85,2.));
#766=CARTESIAN_POINT('',(53.,-21.7789321881345,2.));
#767=CARTESIAN_POINT('Origin',(38.8578643762691,-14.7078643762691,2.));
#768=CARTESIAN_POINT('',(53.,21.7789321881345,2.));
#769=CARTESIAN_POINT('',(53.,-15.425,2.));
#770=CARTESIAN_POINT('',(45.9289321881345,28.85,2.));
#771=CARTESIAN_POINT('Origin',(38.857864376269,14.707864376269,2.));
#772=CARTESIAN_POINT('',(-45.9289321881345,28.85,2.));
#773=CARTESIAN_POINT('',(27.5,28.85,2.));
#774=CARTESIAN_POINT('Origin',(-38.8578643762691,14.7078643762691,2.));
#775=CARTESIAN_POINT('',(-26.45,-21.35,2.));
#776=CARTESIAN_POINT('Origin',(-29.45,-21.35,2.));
#777=CARTESIAN_POINT('',(24.05,-10.85,2.));
#778=CARTESIAN_POINT('Origin',(21.05,-10.85,2.));
#779=CARTESIAN_POINT('',(-41.7,20.65,2.));
#780=CARTESIAN_POINT('Origin',(-44.7,20.65,2.));
#781=CARTESIAN_POINT('',(44.3,20.9,2.));
#782=CARTESIAN_POINT('Origin',(41.3,20.9,2.));
#783=CARTESIAN_POINT('Origin',(-33.2984547920897,9.14845479208968,7.55940958417936));
#784=CARTESIAN_POINT('',(-47.9289321881345,30.85,0.));
#785=CARTESIAN_POINT('',(-33.2984547920897,16.2195226039552,14.6304773960448));
#786=CARTESIAN_POINT('Origin',(-40.857864376269,16.7078643762691,0.));
#787=CARTESIAN_POINT('Origin',(-33.2984547920897,9.14845479208968,-7.55940958417936));
#788=CARTESIAN_POINT('',(-45.9289321881345,28.85,-2.));
#789=CARTESIAN_POINT('Origin',(-38.857864376269,14.707864376269,-2.));
#790=CARTESIAN_POINT('',(-33.2984547920897,16.2195226039552,-14.6304773960448));
#791=CARTESIAN_POINT('Origin',(27.5,29.85,-1.));
#792=CARTESIAN_POINT('',(47.9289321881345,30.85,0.));
#793=CARTESIAN_POINT('',(27.5,30.85,0.));
#794=CARTESIAN_POINT('',(45.9289321881345,28.85,-2.));
#795=CARTESIAN_POINT('',(37.3234547920897,20.2445226039552,-10.6054773960448));
#796=CARTESIAN_POINT('',(27.5,28.85,-2.));
#797=CARTESIAN_POINT('Origin',(27.5,29.85,1.));
#798=CARTESIAN_POINT('',(37.3234547920897,20.2445226039552,10.6054773960448));
#799=CARTESIAN_POINT('Origin',(37.3234547920897,13.1734547920897,-3.53440958417936));
#800=CARTESIAN_POINT('',(53.,21.7789321881345,-2.));
#801=CARTESIAN_POINT('Origin',(38.857864376269,14.707864376269,-2.));
#802=CARTESIAN_POINT('',(55.,23.7789321881345,0.));
#803=CARTESIAN_POINT('Origin',(40.857864376269,16.7078643762691,3.33066907387547E-15));
#804=CARTESIAN_POINT('',(44.3945226039552,13.1734547920897,-10.6054773960448));
#805=CARTESIAN_POINT('Origin',(37.3234547920897,13.1734547920897,3.53440958417936));
#806=CARTESIAN_POINT('',(44.3945226039552,13.1734547920897,10.6054773960448));
#807=CARTESIAN_POINT('Origin',(54.,-15.425,-1.));
#808=CARTESIAN_POINT('',(55.,-23.7789321881345,0.));
#809=CARTESIAN_POINT('',(55.,-15.425,0.));
#810=CARTESIAN_POINT('',(53.,-21.7789321881345,-2.));
#811=CARTESIAN_POINT('',(40.3695226039552,-9.14845479208968,-14.6304773960448));
#812=CARTESIAN_POINT('',(53.,-15.425,-2.));
#813=CARTESIAN_POINT('Origin',(54.,-15.425,1.));
#814=CARTESIAN_POINT('',(40.3695226039552,-9.14845479208968,14.6304773960448));
#815=CARTESIAN_POINT('Origin',(33.2984547920897,-9.14845479208968,-7.55940958417936));
#816=CARTESIAN_POINT('',(45.9289321881345,-28.85,-2.));
#817=CARTESIAN_POINT('Origin',(38.857864376269,-14.707864376269,-2.));
#818=CARTESIAN_POINT('',(47.9289321881345,-30.85,0.));
#819=CARTESIAN_POINT('Origin',(40.857864376269,-16.7078643762691,1.11022302462516E-15));
#820=CARTESIAN_POINT('',(33.2984547920897,-16.2195226039552,-14.6304773960448));
#821=CARTESIAN_POINT('Origin',(33.2984547920897,-9.14845479208968,7.55940958417936));
#822=CARTESIAN_POINT('',(33.2984547920897,-16.2195226039552,14.6304773960448));
#823=CARTESIAN_POINT('Origin',(-27.5,-29.85,-1.));
#824=CARTESIAN_POINT('',(-27.5,-28.85,-2.));
#825=CARTESIAN_POINT('',(-27.5,-30.85,0.));
#826=CARTESIAN_POINT('Origin',(0.,0.,-2.));
#827=CARTESIAN_POINT('Origin',(-27.5,-29.85,1.));
#828=CARTESIAN_POINT('Origin',(41.3,20.9,2.));
#829=CARTESIAN_POINT('',(44.3,20.9,6.));
#830=CARTESIAN_POINT('Origin',(41.3,20.9,6.));
#831=CARTESIAN_POINT('',(44.3,20.9,2.));
#832=CARTESIAN_POINT('Origin',(41.3,20.9,6.));
#833=CARTESIAN_POINT('',(39.7,20.9,6.));
#834=CARTESIAN_POINT('Origin',(41.3,20.9,6.));
#835=CARTESIAN_POINT('Origin',(-44.7,20.65,2.));
#836=CARTESIAN_POINT('',(-41.7,20.65,6.));
#837=CARTESIAN_POINT('Origin',(-44.7,20.65,6.));
#838=CARTESIAN_POINT('',(-41.7,20.65,2.));
#839=CARTESIAN_POINT('Origin',(-44.7,20.65,6.));
#840=CARTESIAN_POINT('',(-46.3,20.65,6.));
#841=CARTESIAN_POINT('Origin',(-44.7,20.65,6.));
#842=CARTESIAN_POINT('Origin',(21.05,-10.85,2.));
#843=CARTESIAN_POINT('',(24.05,-10.85,6.));
#844=CARTESIAN_POINT('Origin',(21.05,-10.85,6.));
#845=CARTESIAN_POINT('',(24.05,-10.85,2.));
#846=CARTESIAN_POINT('Origin',(21.05,-10.85,6.));
#847=CARTESIAN_POINT('',(19.45,-10.85,6.));
#848=CARTESIAN_POINT('Origin',(21.05,-10.85,6.));
#849=CARTESIAN_POINT('Origin',(-29.45,-21.35,2.));
#850=CARTESIAN_POINT('',(-26.45,-21.35,6.));
#851=CARTESIAN_POINT('Origin',(-29.45,-21.35,6.));
#852=CARTESIAN_POINT('',(-26.45,-21.35,2.));
#853=CARTESIAN_POINT('Origin',(-29.45,-21.35,6.));
#854=CARTESIAN_POINT('',(-31.05,-21.35,6.));
#855=CARTESIAN_POINT('Origin',(-29.45,-21.35,6.));
#856=CARTESIAN_POINT('Origin',(0.,0.,0.));
#857=CARTESIAN_POINT('',(-46.3,20.65,0.));
#858=CARTESIAN_POINT('Origin',(-44.7,20.65,0.));
#859=CARTESIAN_POINT('Origin',(0.,0.,0.));
#860=CARTESIAN_POINT('',(-31.05,-21.35,0.));
#861=CARTESIAN_POINT('Origin',(-29.45,-21.35,0.));
#862=CARTESIAN_POINT('Origin',(0.,0.,0.));
#863=CARTESIAN_POINT('',(39.7,20.9,0.));
#864=CARTESIAN_POINT('Origin',(41.3,20.9,0.));
#865=CARTESIAN_POINT('Origin',(0.,0.,0.));
#866=CARTESIAN_POINT('',(19.45,-10.85,0.));
#867=CARTESIAN_POINT('Origin',(21.05,-10.85,0.));
#868=CARTESIAN_POINT('Origin',(21.05,-10.85,0.));
#869=CARTESIAN_POINT('',(19.45,-10.85,0.));
#870=CARTESIAN_POINT('Origin',(41.3,20.9,0.));
#871=CARTESIAN_POINT('',(39.7,20.9,0.));
#872=CARTESIAN_POINT('Origin',(-29.45,-21.35,0.));
#873=CARTESIAN_POINT('',(-31.05,-21.35,0.));
#874=CARTESIAN_POINT('Origin',(-44.7,20.65,0.));
#875=CARTESIAN_POINT('',(-46.3,20.65,0.));
#876=UNCERTAINTY_MEASURE_WITH_UNIT(LENGTH_MEASURE(0.01),#880,
'DISTANCE_ACCURACY_VALUE',
'Maximum model space distance between geometric entities at asserted c
onnectivities');
#877=UNCERTAINTY_MEASURE_WITH_UNIT(LENGTH_MEASURE(0.01),#880,
'DISTANCE_ACCURACY_VALUE',
'Maximum model space distance between geometric entities at asserted c
onnectivities');
#878=(
GEOMETRIC_REPRESENTATION_CONTEXT(3)
GLOBAL_UNCERTAINTY_ASSIGNED_CONTEXT((#876))
GLOBAL_UNIT_ASSIGNED_CONTEXT((#880,#882,#883))
REPRESENTATION_CONTEXT('','3D')
);
#879=(
GEOMETRIC_REPRESENTATION_CONTEXT(3)
GLOBAL_UNCERTAINTY_ASSIGNED_CONTEXT((#877))
GLOBAL_UNIT_ASSIGNED_CONTEXT((#880,#882,#883))
REPRESENTATION_CONTEXT('','3D')
);
#880=(
LENGTH_UNIT()
NAMED_UNIT(*)
SI_UNIT(.MILLI.,.METRE.)
);
#881=(
LENGTH_UNIT()
NAMED_UNIT(*)
SI_UNIT($,.METRE.)
);
#882=(
NAMED_UNIT(*)
PLANE_ANGLE_UNIT()
SI_UNIT($,.RADIAN.)
);
#883=(
NAMED_UNIT(*)
SI_UNIT($,.STERADIAN.)
SOLID_ANGLE_UNIT()
);
#884=SHAPE_DEFINITION_REPRESENTATION(#885,#886);
#885=PRODUCT_DEFINITION_SHAPE('',$,#888);
#886=SHAPE_REPRESENTATION('',(#512),#878);
#887=PRODUCT_DEFINITION_CONTEXT('part definition',#892,'design');
#888=PRODUCT_DEFINITION('2026-05-28-19-19-01-971','HackPad',#889,#887);
#889=PRODUCT_DEFINITION_FORMATION('',$,#894);
#890=PRODUCT_RELATED_PRODUCT_CATEGORY('HackPad','HackPad',(#894));
#891=APPLICATION_PROTOCOL_DEFINITION('international standard',
'automotive_design',2009,#892);
#892=APPLICATION_CONTEXT(
'Core Data for Automotive Mechanical Design Process');
#893=PRODUCT_CONTEXT('part definition',#892,'mechanical');
#894=PRODUCT('2026-05-28-19-19-01-971','HackPad',$,(#893));
#895=PRESENTATION_STYLE_ASSIGNMENT((#896));
#896=SURFACE_STYLE_USAGE(.BOTH.,#897);
#897=SURFACE_SIDE_STYLE('',(#898));
#898=SURFACE_STYLE_FILL_AREA(#899);
#899=FILL_AREA_STYLE('Steel - Satin',(#900));
#900=FILL_AREA_STYLE_COLOUR('Steel - Satin',#901);
#901=COLOUR_RGB('Steel - Satin',0.627450980392157,0.627450980392157,0.627450980392157);
ENDSEC;
END-ISO-10303-21;
