M48
; DRILL file KiCad 10.0.0 date 2026-06-08T15:49:34
; FORMAT={-:-/ absolute / metric / decimal}
; #@! TF.CreationDate,2026-06-08T15:49:34+05:00
; #@! TF.GenerationSoftware,Kicad,Pcbnew,10.0.0
; #@! TF.FileFunction,Plated,1,2,PTH
FMAT,2
METRIC
; #@! TA.AperFunction,Plated,PTH,ViaDrill
T1C0.300
; #@! TA.AperFunction,Plated,PTH,ComponentDrill
T2C1.000
; #@! TA.AperFunction,Plated,PTH,ComponentDrill
T3C1.500
%
G90
G05
T1
X65.059Y-48.674
X103.371Y-65.974
T2
X105.0Y-38.75
X105.0Y-41.29
X105.0Y-43.83
X105.0Y-46.37
X105.0Y-48.91
X105.0Y-51.45
X105.0Y-53.99
X120.25Y-38.75
X120.25Y-41.29
X120.25Y-43.83
X120.25Y-46.37
X120.25Y-48.91
X120.25Y-51.45
X120.25Y-53.99
X132.0Y-51.25
X132.0Y-53.75
X132.0Y-56.25
X146.5Y-51.25
X146.5Y-56.25
T3
X56.0Y-51.43
X56.0Y-70.48
X62.35Y-48.89
X62.35Y-67.94
X75.05Y-51.43
X75.05Y-70.48
X81.4Y-48.89
X81.4Y-67.94
T3
G00X138.85Y-48.15
M15
G01X140.15Y-48.15
M16
G05
G00X138.85Y-59.35
M15
G01X140.15Y-59.35
M16
G05
M30
