M48
; DRILL file KiCad 10.0.0 date 2026-05-26T16:32:35
; FORMAT={-:-/ absolute / metric / decimal}
; #@! TF.CreationDate,2026-05-26T16:32:35+05:00
; #@! TF.GenerationSoftware,Kicad,Pcbnew,10.0.0
; #@! TF.FileFunction,NonPlated,1,2,NPTH
FMAT,2
METRIC
; #@! TA.AperFunction,NonPlated,NPTH,ComponentDrill
T1C1.700
; #@! TA.AperFunction,NonPlated,NPTH,ComponentDrill
T2C3.200
; #@! TA.AperFunction,NonPlated,NPTH,ComponentDrill
T3C4.000
%
G90
G05
T1
X54.73Y-53.97
X54.73Y-73.02
X64.89Y-53.97
X64.89Y-73.02
X73.78Y-53.97
X73.78Y-73.02
X83.94Y-53.97
X83.94Y-73.02
X92.83Y-53.97
X92.83Y-73.02
X102.99Y-53.97
X102.99Y-73.02
T2
X54.25Y-41.0
X69.5Y-82.0
X120.0Y-72.5
X140.25Y-40.75
T3
X59.81Y-53.97
X59.81Y-73.02
X78.86Y-53.97
X78.86Y-73.02
X97.91Y-53.97
X97.91Y-73.02
M30
