%TF.GenerationSoftware,KiCad,Pcbnew,10.0.0*%
%TF.CreationDate,2026-05-26T16:32:26+05:00*%
%TF.ProjectId,HackPad,4861636b-5061-4642-9e6b-696361645f70,rev?*%
%TF.SameCoordinates,Original*%
%TF.FileFunction,Legend,Top*%
%TF.FilePolarity,Positive*%
%FSLAX46Y46*%
G04 Gerber Fmt 4.6, Leading zero omitted, Abs format (unit mm)*
G04 Created by KiCad (PCBNEW 10.0.0) date 2026-05-26 16:32:26*
%MOMM*%
%LPD*%
G01*
G04 APERTURE LIST*
%ADD10C,0.100000*%
%ADD11C,0.150000*%
%ADD12C,0.101600*%
%ADD13C,0.120000*%
%ADD14C,0.127000*%
%ADD15C,0.254000*%
%ADD16C,0.025400*%
G04 APERTURE END LIST*
D10*
G36*
X63338381Y-38376957D02*
G01*
X63338381Y-38048695D01*
X62350175Y-38048695D01*
X62350175Y-38376957D01*
X62020691Y-38376957D01*
X62020691Y-39695380D01*
X61361968Y-39695380D01*
X61361968Y-38376957D01*
X61032485Y-38376957D01*
X61032485Y-38048695D01*
X59385555Y-38048695D01*
X59385555Y-38376957D01*
X60044278Y-38376957D01*
X60044278Y-38720851D01*
X59714794Y-38720851D01*
X59714794Y-39033482D01*
X59385555Y-39033482D01*
X59385555Y-38376957D01*
X59056072Y-38376957D01*
X59056072Y-42330516D01*
X59385555Y-42330516D01*
X59385555Y-42660000D01*
X61032485Y-42660000D01*
X61032485Y-42330516D01*
X61361968Y-42330516D01*
X61361968Y-40683586D01*
X62020691Y-40683586D01*
X62020691Y-42330516D01*
X62350175Y-42330516D01*
X62350175Y-42660000D01*
X63338381Y-42660000D01*
X63338381Y-42330516D01*
X63667865Y-42330516D01*
X63667865Y-38376957D01*
X63338381Y-38376957D01*
G37*
G36*
X67947488Y-38376957D02*
G01*
X68276727Y-38376957D01*
X68276727Y-38720851D01*
X68606211Y-38720851D01*
X68606211Y-39033482D01*
X68935695Y-39033482D01*
X68935695Y-42330516D01*
X68606211Y-42330516D01*
X68606211Y-42660000D01*
X67947488Y-42660000D01*
X67947488Y-42330516D01*
X67618005Y-42330516D01*
X67618005Y-40354103D01*
X66629798Y-40354103D01*
X66629798Y-42330516D01*
X66300314Y-42330516D01*
X66300314Y-42660000D01*
X64653385Y-42660000D01*
X64653385Y-42330516D01*
X64323901Y-42330516D01*
X64323901Y-39690006D01*
X66629798Y-39690006D01*
X67618005Y-39690006D01*
X67618005Y-39033482D01*
X66629798Y-39033482D01*
X66629798Y-39690006D01*
X64323901Y-39690006D01*
X64323901Y-38720851D01*
X64653385Y-38720851D01*
X64653385Y-39033482D01*
X64982624Y-39033482D01*
X64982624Y-38720851D01*
X65312108Y-38720851D01*
X65312108Y-38376957D01*
X64982624Y-38376957D01*
X64982624Y-38048695D01*
X67947488Y-38048695D01*
X67947488Y-38376957D01*
G37*
G36*
X73874041Y-38048695D02*
G01*
X70250454Y-38048695D01*
X70250454Y-38376957D01*
X70579938Y-38376957D01*
X70579938Y-38720851D01*
X70250454Y-38720851D01*
X70250454Y-39036413D01*
X69921215Y-39036413D01*
X69921215Y-38720851D01*
X69591731Y-38720851D01*
X69591731Y-42001277D01*
X69921215Y-42001277D01*
X69921215Y-42330516D01*
X70250454Y-42330516D01*
X70250454Y-42660000D01*
X73874041Y-42660000D01*
X73874041Y-42330516D01*
X74203524Y-42330516D01*
X74203524Y-41671793D01*
X73874041Y-41671793D01*
X73874041Y-41342309D01*
X71897628Y-41342309D01*
X71897628Y-39036413D01*
X73874041Y-39036413D01*
X73874041Y-38705219D01*
X74203524Y-38705219D01*
X74203524Y-38376957D01*
X73874041Y-38376957D01*
X73874041Y-38048695D01*
G37*
G36*
X79141871Y-38048695D02*
G01*
X78483148Y-38048695D01*
X78483148Y-38376957D01*
X78153664Y-38376957D01*
X78153664Y-38720851D01*
X77824180Y-38720851D01*
X77824180Y-39033482D01*
X77494941Y-39033482D01*
X77494941Y-39361744D01*
X77165457Y-39361744D01*
X77165457Y-38376957D01*
X76835974Y-38376957D01*
X76835974Y-38048695D01*
X75189044Y-38048695D01*
X75189044Y-38376957D01*
X75847767Y-38376957D01*
X75847767Y-38720851D01*
X75518284Y-38720851D01*
X75518284Y-39033482D01*
X75189044Y-39033482D01*
X75189044Y-38376957D01*
X74859561Y-38376957D01*
X74859561Y-42330516D01*
X75189044Y-42330516D01*
X75189044Y-42660000D01*
X76835974Y-42660000D01*
X76835974Y-42330516D01*
X77165457Y-42330516D01*
X77165457Y-41342309D01*
X77494941Y-41342309D01*
X77494941Y-41671793D01*
X77824180Y-41671793D01*
X77824180Y-42001277D01*
X78153664Y-42001277D01*
X78153664Y-42330516D01*
X78483148Y-42330516D01*
X78483148Y-42660000D01*
X79141871Y-42660000D01*
X79141871Y-42330516D01*
X79471354Y-42330516D01*
X79471354Y-41018688D01*
X79141871Y-41018688D01*
X79141871Y-40690425D01*
X78812387Y-40690425D01*
X78812387Y-40362163D01*
X78483148Y-40362163D01*
X78483148Y-40018269D01*
X78812387Y-40018269D01*
X78812387Y-39690006D01*
X79141871Y-39690006D01*
X79141871Y-39365896D01*
X79471354Y-39365896D01*
X79471354Y-38376957D01*
X79141871Y-38376957D01*
X79141871Y-38048695D01*
G37*
G36*
X89021005Y-38048695D02*
G01*
X85397418Y-38048695D01*
X85397418Y-38376957D01*
X85726902Y-38376957D01*
X85726902Y-38720851D01*
X85397418Y-38720851D01*
X85397418Y-39036413D01*
X85068179Y-39036413D01*
X85068179Y-38720851D01*
X84738695Y-38720851D01*
X84738695Y-42001277D01*
X85068179Y-42001277D01*
X85068179Y-42330516D01*
X85397418Y-42330516D01*
X85397418Y-42660000D01*
X89021005Y-42660000D01*
X89021005Y-42330516D01*
X89350489Y-42330516D01*
X89350489Y-41671793D01*
X89021005Y-41671793D01*
X89021005Y-41342309D01*
X87044592Y-41342309D01*
X87044592Y-39036413D01*
X89021005Y-39036413D01*
X89021005Y-38705219D01*
X89350489Y-38705219D01*
X89350489Y-38376957D01*
X89021005Y-38376957D01*
X89021005Y-38048695D01*
G37*
G36*
X93959351Y-41342309D02*
G01*
X92312422Y-41342309D01*
X92312422Y-38376957D01*
X91982938Y-38376957D01*
X91982938Y-38048695D01*
X90336009Y-38048695D01*
X90336009Y-38376957D01*
X90994732Y-38376957D01*
X90994732Y-38720851D01*
X90665248Y-38720851D01*
X90665248Y-39033482D01*
X90336009Y-39033482D01*
X90336009Y-38376957D01*
X90006525Y-38376957D01*
X90006525Y-42330516D01*
X90336009Y-42330516D01*
X90336009Y-42660000D01*
X93959351Y-42660000D01*
X93959351Y-42330516D01*
X94288835Y-42330516D01*
X94288835Y-41671793D01*
X93959351Y-41671793D01*
X93959351Y-41342309D01*
G37*
G36*
X99228402Y-38048695D02*
G01*
X98240196Y-38048695D01*
X98240196Y-38376957D01*
X97910712Y-38376957D01*
X97910712Y-41342309D01*
X97251989Y-41342309D01*
X97251989Y-38376957D01*
X96922506Y-38376957D01*
X96922506Y-38048695D01*
X95275576Y-38048695D01*
X95275576Y-38376957D01*
X95934299Y-38376957D01*
X95934299Y-38720851D01*
X95604815Y-38720851D01*
X95604815Y-39033482D01*
X95275576Y-39033482D01*
X95275576Y-38376957D01*
X94946092Y-38376957D01*
X94946092Y-42001277D01*
X95275576Y-42001277D01*
X95275576Y-42330516D01*
X95604815Y-42330516D01*
X95604815Y-42660000D01*
X98898919Y-42660000D01*
X98898919Y-42330516D01*
X99228402Y-42330516D01*
X99228402Y-42001277D01*
X99557886Y-42001277D01*
X99557886Y-38376957D01*
X99228402Y-38376957D01*
X99228402Y-38048695D01*
G37*
G36*
X104166748Y-38376957D02*
G01*
X104496232Y-38376957D01*
X104496232Y-38720851D01*
X104825716Y-38720851D01*
X104825716Y-40018269D01*
X104496232Y-40018269D01*
X104496232Y-40362163D01*
X104825716Y-40362163D01*
X104825716Y-42001277D01*
X104496232Y-42001277D01*
X104496232Y-42330516D01*
X104166748Y-42330516D01*
X104166748Y-42660000D01*
X100543406Y-42660000D01*
X100543406Y-42330516D01*
X100213922Y-42330516D01*
X100213922Y-41346950D01*
X102519819Y-41346950D01*
X103508025Y-41346950D01*
X103508025Y-40690425D01*
X102519819Y-40690425D01*
X102519819Y-41346950D01*
X100213922Y-41346950D01*
X100213922Y-39690006D01*
X102519819Y-39690006D01*
X103508025Y-39690006D01*
X103508025Y-39033482D01*
X102519819Y-39033482D01*
X102519819Y-39690006D01*
X100213922Y-39690006D01*
X100213922Y-38376957D01*
X100543406Y-38376957D01*
X100543406Y-39033482D01*
X100872645Y-39033482D01*
X100872645Y-38720851D01*
X101202129Y-38720851D01*
X101202129Y-38376957D01*
X100543406Y-38376957D01*
X100543406Y-38048695D01*
X104166748Y-38048695D01*
X104166748Y-38376957D01*
G37*
G36*
X107458165Y-38048695D02*
G01*
X105811235Y-38048695D01*
X105811235Y-38376957D01*
X106469958Y-38376957D01*
X106469958Y-38720851D01*
X106140475Y-38720851D01*
X106140475Y-39033482D01*
X105811235Y-39033482D01*
X105811235Y-38376957D01*
X105481752Y-38376957D01*
X105481752Y-39695380D01*
X105811235Y-39695380D01*
X105811235Y-40346531D01*
X106140475Y-40346531D01*
X106140475Y-40674794D01*
X107128926Y-40674794D01*
X107128926Y-40346531D01*
X107458165Y-40346531D01*
X107458165Y-39695380D01*
X107787649Y-39695380D01*
X107787649Y-38376957D01*
X107458165Y-38376957D01*
X107458165Y-38048695D01*
G37*
G36*
X107128926Y-41018688D02*
G01*
X106140475Y-41018688D01*
X106140475Y-41346950D01*
X105811235Y-41346950D01*
X105811235Y-42330516D01*
X106140475Y-42330516D01*
X106140475Y-42660000D01*
X107128926Y-42660000D01*
X107128926Y-42330516D01*
X107458165Y-42330516D01*
X107458165Y-41346950D01*
X107128926Y-41346950D01*
X107128926Y-41018688D01*
G37*
G36*
X109211025Y-59341543D02*
G01*
X109211025Y-58317006D01*
X109826334Y-58317006D01*
X109826334Y-59341543D01*
X110852337Y-59341543D01*
X110852337Y-58317006D01*
X111467646Y-58317006D01*
X111467646Y-60373225D01*
X111672993Y-60373225D01*
X111672993Y-60990000D01*
X111467646Y-60990000D01*
X111268521Y-60970481D01*
X111118683Y-60917570D01*
X111006464Y-60835558D01*
X110924698Y-60722763D01*
X110871852Y-60571858D01*
X110852337Y-60371027D01*
X110852337Y-59958318D01*
X109826334Y-59958318D01*
X109826334Y-60990000D01*
X109211025Y-60990000D01*
X109211025Y-59958318D01*
X109005861Y-59958318D01*
X109005861Y-59341543D01*
X109211025Y-59341543D01*
G37*
G36*
X113510676Y-58317006D02*
G01*
X114530635Y-58317006D01*
X114530635Y-58933780D01*
X114331332Y-58933780D01*
X114331332Y-60373225D01*
X114530635Y-60373225D01*
X114530635Y-60990000D01*
X114326936Y-60990000D01*
X114129544Y-60970549D01*
X113980880Y-60917788D01*
X113869410Y-60835921D01*
X113788083Y-60723181D01*
X113735466Y-60572172D01*
X113716024Y-60371027D01*
X113716024Y-59958318D01*
X112690020Y-59958318D01*
X112690020Y-60371027D01*
X112670503Y-60571845D01*
X112617648Y-60722745D01*
X112535862Y-60835543D01*
X112423613Y-60917561D01*
X112273726Y-60970478D01*
X112074528Y-60990000D01*
X111869364Y-60990000D01*
X111869364Y-60373225D01*
X112074712Y-60373225D01*
X112074712Y-59341543D01*
X112690020Y-59341543D01*
X113716024Y-59341543D01*
X113716024Y-58933780D01*
X112690020Y-58933780D01*
X112690020Y-59341543D01*
X112074712Y-59341543D01*
X112074712Y-58933780D01*
X111869364Y-58933780D01*
X111869364Y-58317006D01*
X112895368Y-58317006D01*
X112895368Y-58113124D01*
X113510676Y-58113124D01*
X113510676Y-58317006D01*
G37*
G36*
X116591067Y-58933780D02*
G01*
X115565064Y-58933780D01*
X115565064Y-59139494D01*
X115583830Y-59411717D01*
X115636312Y-59638609D01*
X115718548Y-59827897D01*
X115829115Y-59985780D01*
X115969233Y-60116548D01*
X116142656Y-60222242D01*
X116355366Y-60302474D01*
X116615187Y-60354461D01*
X116931420Y-60373225D01*
X117206376Y-60373225D01*
X117206376Y-60990000D01*
X116931420Y-60990000D01*
X116552637Y-60971258D01*
X116229347Y-60918594D01*
X115953974Y-60836370D01*
X115719844Y-60727524D01*
X115521367Y-60593438D01*
X115354244Y-60433862D01*
X115215675Y-60246927D01*
X115104519Y-60029258D01*
X115021362Y-59776155D01*
X114968485Y-59481809D01*
X114949755Y-59139494D01*
X114949755Y-58933780D01*
X114744591Y-58933780D01*
X114744591Y-58317006D01*
X117206376Y-58317006D01*
X117206376Y-59345024D01*
X116591067Y-59345024D01*
X116591067Y-58933780D01*
G37*
G36*
X118018239Y-59770190D02*
G01*
X118092949Y-59495701D01*
X118228753Y-59168700D01*
X118439868Y-58779306D01*
X118742725Y-58317006D01*
X119460799Y-58317006D01*
X119156847Y-58768986D01*
X118935039Y-59150346D01*
X118781784Y-59470476D01*
X118684925Y-59738163D01*
X118633914Y-59961615D01*
X118652323Y-60117513D01*
X118701625Y-60228102D01*
X118778824Y-60305467D01*
X118889032Y-60354814D01*
X119044242Y-60373225D01*
X119659734Y-60373225D01*
X119659734Y-60990000D01*
X119044059Y-60990000D01*
X118785587Y-60971549D01*
X118575559Y-60920465D01*
X118405147Y-60841179D01*
X118267390Y-60735246D01*
X118157692Y-60601204D01*
X118074251Y-60434733D01*
X118018239Y-60229061D01*
X118018239Y-60990000D01*
X117402930Y-60990000D01*
X117402930Y-58317006D01*
X118018239Y-58317006D01*
X118018239Y-59770190D01*
G37*
G36*
X122329614Y-59342826D02*
G01*
X122310150Y-59542269D01*
X122257412Y-59692238D01*
X122175741Y-59804445D01*
X122063535Y-59886116D01*
X121913565Y-59938853D01*
X121714122Y-59958318D01*
X120688302Y-59958318D01*
X120688302Y-60990000D01*
X120072993Y-60990000D01*
X120072993Y-59958318D01*
X119867829Y-59958318D01*
X119867829Y-59341543D01*
X120072993Y-59341543D01*
X120688302Y-59341543D01*
X121714305Y-59341543D01*
X121714305Y-58933780D01*
X120688302Y-58933780D01*
X120688302Y-59341543D01*
X120072993Y-59341543D01*
X120072993Y-58317006D01*
X122329614Y-58317006D01*
X122329614Y-59342826D01*
G37*
G36*
X124167480Y-58317006D02*
G01*
X125187438Y-58317006D01*
X125187438Y-58933780D01*
X124988136Y-58933780D01*
X124988136Y-60373225D01*
X125187438Y-60373225D01*
X125187438Y-60990000D01*
X124983740Y-60990000D01*
X124786348Y-60970549D01*
X124637684Y-60917788D01*
X124526213Y-60835921D01*
X124444887Y-60723181D01*
X124392270Y-60572172D01*
X124372827Y-60371027D01*
X124372827Y-59958318D01*
X123346824Y-59958318D01*
X123346824Y-60371027D01*
X123327307Y-60571845D01*
X123274451Y-60722745D01*
X123192666Y-60835543D01*
X123080417Y-60917561D01*
X122930530Y-60970478D01*
X122731332Y-60990000D01*
X122526168Y-60990000D01*
X122526168Y-60373225D01*
X122731516Y-60373225D01*
X122731516Y-59341543D01*
X123346824Y-59341543D01*
X124372827Y-59341543D01*
X124372827Y-58933780D01*
X123346824Y-58933780D01*
X123346824Y-59341543D01*
X122731516Y-59341543D01*
X122731516Y-58933780D01*
X122526168Y-58933780D01*
X122526168Y-58317006D01*
X123552172Y-58317006D01*
X123552172Y-58113124D01*
X124167480Y-58113124D01*
X124167480Y-58317006D01*
G37*
G36*
X126221868Y-58933780D02*
G01*
X126221868Y-60990000D01*
X125606559Y-60990000D01*
X125606559Y-58933780D01*
X125401395Y-58933780D01*
X125401395Y-58317006D01*
X127863180Y-58317006D01*
X127863180Y-59961981D01*
X127844519Y-60220591D01*
X127792977Y-60429493D01*
X127713139Y-60597940D01*
X127606545Y-60733176D01*
X127471545Y-60839894D01*
X127303485Y-60919783D01*
X127095162Y-60971338D01*
X126837360Y-60990000D01*
X126632196Y-60990000D01*
X126632196Y-60373225D01*
X126837543Y-60373225D01*
X126992782Y-60354823D01*
X127102996Y-60305504D01*
X127180184Y-60228197D01*
X127229471Y-60117712D01*
X127247871Y-59961981D01*
X127247871Y-58933780D01*
X126221868Y-58933780D01*
G37*
G36*
X114543492Y-64249124D02*
G01*
X114391817Y-64181346D01*
X114627573Y-63643707D01*
X115786383Y-64080779D01*
X115517655Y-66353703D01*
X114475898Y-66269439D01*
X114631603Y-65787487D01*
X114760929Y-65377342D01*
X114666423Y-65408699D01*
X114498237Y-65433044D01*
X114223656Y-65443105D01*
X113968664Y-65425791D01*
X113742811Y-65376069D01*
X113541669Y-65296010D01*
X113405585Y-65212525D01*
X113280188Y-65102809D01*
X113164605Y-64963863D01*
X113058801Y-64791526D01*
X112979719Y-64613513D01*
X112913418Y-64397296D01*
X112862204Y-64136608D01*
X112829091Y-63824508D01*
X112825061Y-63643340D01*
X112842970Y-63342835D01*
X112895769Y-63058623D01*
X112953478Y-62876574D01*
X113030663Y-62708546D01*
X113127494Y-62553040D01*
X113245718Y-62414602D01*
X113392489Y-62292178D01*
X113571528Y-62185394D01*
X113765199Y-62108864D01*
X113991486Y-62060409D01*
X114256446Y-62043244D01*
X114521029Y-62058915D01*
X114781446Y-62105893D01*
X115031770Y-62181890D01*
X115255155Y-62280648D01*
X115457270Y-62406307D01*
X115625366Y-62553956D01*
X115718882Y-62667419D01*
X115785275Y-62782454D01*
X115827416Y-62900354D01*
X114908574Y-63504122D01*
X114864135Y-63431771D01*
X114790911Y-63371042D01*
X114680340Y-63321813D01*
X114519849Y-63287458D01*
X114293815Y-63274228D01*
X114221965Y-63289726D01*
X114142497Y-63341842D01*
X114050732Y-63445504D01*
X113981464Y-63564679D01*
X113940176Y-63692444D01*
X113926168Y-63831652D01*
X113947691Y-63990319D01*
X114013546Y-64144527D01*
X114083847Y-64225294D01*
X114183784Y-64275618D01*
X114324040Y-64294187D01*
X114388703Y-64283928D01*
X114470769Y-64265061D01*
X114543492Y-64249124D01*
G37*
G36*
X116915076Y-63109612D02*
G01*
X117064811Y-63139590D01*
X117212295Y-63190209D01*
X117374389Y-63268000D01*
X117506614Y-63360159D01*
X117610877Y-63478843D01*
X117689303Y-63618455D01*
X117744050Y-63776697D01*
X117775532Y-63944494D01*
X117786182Y-64120896D01*
X117780192Y-64267340D01*
X117762552Y-64406660D01*
X117734161Y-64540780D01*
X117698072Y-64659452D01*
X117652081Y-64768634D01*
X117601901Y-64854541D01*
X117465805Y-65037082D01*
X117325113Y-65187383D01*
X117173196Y-65315607D01*
X117023778Y-65412513D01*
X116868591Y-65487362D01*
X116719513Y-65537810D01*
X116568698Y-65568028D01*
X116421292Y-65577927D01*
X116250634Y-65564124D01*
X116090465Y-65523339D01*
X115942544Y-65459038D01*
X115823019Y-65380640D01*
X115712721Y-65270460D01*
X115617690Y-65135043D01*
X115537988Y-64970678D01*
X115481309Y-64796234D01*
X115447130Y-64614837D01*
X115435589Y-64424979D01*
X115454943Y-64179834D01*
X115490163Y-64044876D01*
X116300942Y-64044876D01*
X116320317Y-64162773D01*
X116377498Y-64262452D01*
X116477896Y-64348958D01*
X116591055Y-64409482D01*
X116694405Y-64443100D01*
X116790404Y-64453738D01*
X116884152Y-64442875D01*
X116969775Y-64410720D01*
X117049607Y-64356102D01*
X117148398Y-64246078D01*
X117222348Y-64105509D01*
X117267467Y-63951454D01*
X117282065Y-63802342D01*
X117275722Y-63702073D01*
X117257519Y-63613115D01*
X117202606Y-63759457D01*
X117106393Y-63888621D01*
X117023700Y-63958941D01*
X116949134Y-63996309D01*
X116879614Y-64007873D01*
X116826768Y-64000563D01*
X116780879Y-63979113D01*
X116736636Y-63916359D01*
X116719330Y-63806372D01*
X116734330Y-63714487D01*
X116781978Y-63619527D01*
X116859492Y-63539277D01*
X116980181Y-63473531D01*
X116846680Y-63486383D01*
X116717681Y-63525005D01*
X116598550Y-63584742D01*
X116500427Y-63657629D01*
X116418467Y-63744514D01*
X116355347Y-63840628D01*
X116314152Y-63944003D01*
X116300942Y-64044876D01*
X115490163Y-64044876D01*
X115510069Y-63968599D01*
X115598530Y-63785397D01*
X115720621Y-63625755D01*
X115890839Y-63460886D01*
X116058542Y-63330948D01*
X116224555Y-63232096D01*
X116401805Y-63157633D01*
X116578748Y-63113935D01*
X116757431Y-63099473D01*
X116915076Y-63109612D01*
G37*
G36*
X118504623Y-63077308D02*
G01*
X118736193Y-63005179D01*
X118952869Y-62982236D01*
X119149502Y-63000272D01*
X119355111Y-63056210D01*
X119572941Y-63154427D01*
X119702114Y-63243539D01*
X119805441Y-63356970D01*
X119885083Y-63497894D01*
X119939431Y-63653026D01*
X119972860Y-63822079D01*
X119984368Y-64007323D01*
X119978370Y-64153124D01*
X119960737Y-64291256D01*
X119932420Y-64424210D01*
X119896441Y-64542398D01*
X119850531Y-64651224D01*
X119800087Y-64737121D01*
X119617164Y-64972970D01*
X119428777Y-65153311D01*
X119224031Y-65295546D01*
X119026692Y-65387967D01*
X118822890Y-65442824D01*
X118623691Y-65460690D01*
X118585589Y-65457759D01*
X118539427Y-65456660D01*
X118539427Y-65526636D01*
X117614541Y-65577927D01*
X117633346Y-63814616D01*
X118518911Y-63814616D01*
X118518911Y-64032419D01*
X118574048Y-64139915D01*
X118675348Y-64231905D01*
X118791322Y-64292790D01*
X118894682Y-64326227D01*
X118988224Y-64336685D01*
X119082092Y-64325817D01*
X119167774Y-64293657D01*
X119247609Y-64239049D01*
X119346441Y-64129031D01*
X119420533Y-63988456D01*
X119465604Y-63834139D01*
X119480251Y-63683274D01*
X119473992Y-63586016D01*
X119455521Y-63494047D01*
X119399329Y-63642228D01*
X119303663Y-63771568D01*
X119221568Y-63841709D01*
X119147168Y-63879053D01*
X119077433Y-63890636D01*
X119023803Y-63882660D01*
X118981079Y-63859862D01*
X118935487Y-63799776D01*
X118917332Y-63687121D01*
X118932035Y-63593511D01*
X118977965Y-63500092D01*
X119054265Y-63421860D01*
X119178183Y-63356294D01*
X119026300Y-63372296D01*
X118883260Y-63420041D01*
X118754004Y-63494929D01*
X118648787Y-63589485D01*
X118567693Y-63700604D01*
X118518911Y-63814616D01*
X117633346Y-63814616D01*
X117647330Y-62503398D01*
X117345812Y-62571175D01*
X117446379Y-62065593D01*
X118488136Y-61627787D01*
X118504623Y-63077308D01*
G37*
G36*
X120962561Y-66012069D02*
G01*
X120037674Y-66063543D01*
X119853026Y-62493323D01*
X119551509Y-62561100D01*
X119652076Y-62055518D01*
X120693832Y-61617712D01*
X120962561Y-66012069D01*
G37*
G36*
X121973909Y-65871751D02*
G01*
X121051770Y-65923225D01*
X121002677Y-63717712D01*
X120699328Y-63785673D01*
X120799712Y-63279907D01*
X121838538Y-62842102D01*
X121973909Y-65871751D01*
G37*
G36*
X121303096Y-61597745D02*
G01*
X121441650Y-61610484D01*
X121553323Y-61645922D01*
X121651167Y-61700631D01*
X121726064Y-61762976D01*
X121785891Y-61831504D01*
X121818021Y-61883143D01*
X121836306Y-61940459D01*
X121842568Y-62004227D01*
X121832138Y-62104199D01*
X121799703Y-62208475D01*
X121751192Y-62306424D01*
X121695472Y-62385978D01*
X121631550Y-62447434D01*
X121578968Y-62472257D01*
X121419600Y-62488743D01*
X121290533Y-62476337D01*
X121184577Y-62441482D01*
X121094344Y-62383248D01*
X121025026Y-62303913D01*
X120977633Y-62207499D01*
X120951570Y-62092520D01*
X120972792Y-61923553D01*
X121036383Y-61766090D01*
X121103738Y-61679870D01*
X121190846Y-61624514D01*
X121303096Y-61597745D01*
G37*
G36*
X122804091Y-63113761D02*
G01*
X123195734Y-62997807D01*
X123358622Y-62967417D01*
X123509525Y-62957690D01*
X123640974Y-62967991D01*
X123757675Y-62997705D01*
X123862151Y-63045983D01*
X123977005Y-63124380D01*
X124107382Y-63240720D01*
X124255809Y-63403738D01*
X124386285Y-63579707D01*
X124470951Y-63734712D01*
X124518309Y-63872501D01*
X124581397Y-64167489D01*
X124616188Y-64420699D01*
X124626936Y-64637287D01*
X124604221Y-65000170D01*
X124534429Y-65488351D01*
X123677320Y-65539825D01*
X123677320Y-65243803D01*
X123661929Y-64834536D01*
X123618142Y-64472980D01*
X123549066Y-64153996D01*
X123457135Y-63872868D01*
X123388848Y-63736595D01*
X123334777Y-63676819D01*
X123290073Y-63661109D01*
X123231830Y-63682281D01*
X123156645Y-63765105D01*
X123055783Y-63957131D01*
X123005774Y-64121446D01*
X122977198Y-64329174D01*
X122968039Y-64600467D01*
X122976291Y-64938402D01*
X123004858Y-65404087D01*
X121998089Y-65521324D01*
X121953026Y-65161554D01*
X121921153Y-64829628D01*
X121909979Y-64499534D01*
X121918039Y-64279532D01*
X121881219Y-63081154D01*
X122687220Y-62978206D01*
X122804091Y-63113761D01*
G37*
D11*
X96576667Y-46503200D02*
X96719524Y-46550819D01*
X96719524Y-46550819D02*
X96957619Y-46550819D01*
X96957619Y-46550819D02*
X97052857Y-46503200D01*
X97052857Y-46503200D02*
X97100476Y-46455580D01*
X97100476Y-46455580D02*
X97148095Y-46360342D01*
X97148095Y-46360342D02*
X97148095Y-46265104D01*
X97148095Y-46265104D02*
X97100476Y-46169866D01*
X97100476Y-46169866D02*
X97052857Y-46122247D01*
X97052857Y-46122247D02*
X96957619Y-46074628D01*
X96957619Y-46074628D02*
X96767143Y-46027009D01*
X96767143Y-46027009D02*
X96671905Y-45979390D01*
X96671905Y-45979390D02*
X96624286Y-45931771D01*
X96624286Y-45931771D02*
X96576667Y-45836533D01*
X96576667Y-45836533D02*
X96576667Y-45741295D01*
X96576667Y-45741295D02*
X96624286Y-45646057D01*
X96624286Y-45646057D02*
X96671905Y-45598438D01*
X96671905Y-45598438D02*
X96767143Y-45550819D01*
X96767143Y-45550819D02*
X97005238Y-45550819D01*
X97005238Y-45550819D02*
X97148095Y-45598438D01*
X97481429Y-45550819D02*
X97719524Y-46550819D01*
X97719524Y-46550819D02*
X97910000Y-45836533D01*
X97910000Y-45836533D02*
X98100476Y-46550819D01*
X98100476Y-46550819D02*
X98338572Y-45550819D01*
X99195714Y-45550819D02*
X98719524Y-45550819D01*
X98719524Y-45550819D02*
X98671905Y-46027009D01*
X98671905Y-46027009D02*
X98719524Y-45979390D01*
X98719524Y-45979390D02*
X98814762Y-45931771D01*
X98814762Y-45931771D02*
X99052857Y-45931771D01*
X99052857Y-45931771D02*
X99148095Y-45979390D01*
X99148095Y-45979390D02*
X99195714Y-46027009D01*
X99195714Y-46027009D02*
X99243333Y-46122247D01*
X99243333Y-46122247D02*
X99243333Y-46360342D01*
X99243333Y-46360342D02*
X99195714Y-46455580D01*
X99195714Y-46455580D02*
X99148095Y-46503200D01*
X99148095Y-46503200D02*
X99052857Y-46550819D01*
X99052857Y-46550819D02*
X98814762Y-46550819D01*
X98814762Y-46550819D02*
X98719524Y-46503200D01*
X98719524Y-46503200D02*
X98671905Y-46455580D01*
X133466667Y-46957200D02*
X133609524Y-47004819D01*
X133609524Y-47004819D02*
X133847619Y-47004819D01*
X133847619Y-47004819D02*
X133942857Y-46957200D01*
X133942857Y-46957200D02*
X133990476Y-46909580D01*
X133990476Y-46909580D02*
X134038095Y-46814342D01*
X134038095Y-46814342D02*
X134038095Y-46719104D01*
X134038095Y-46719104D02*
X133990476Y-46623866D01*
X133990476Y-46623866D02*
X133942857Y-46576247D01*
X133942857Y-46576247D02*
X133847619Y-46528628D01*
X133847619Y-46528628D02*
X133657143Y-46481009D01*
X133657143Y-46481009D02*
X133561905Y-46433390D01*
X133561905Y-46433390D02*
X133514286Y-46385771D01*
X133514286Y-46385771D02*
X133466667Y-46290533D01*
X133466667Y-46290533D02*
X133466667Y-46195295D01*
X133466667Y-46195295D02*
X133514286Y-46100057D01*
X133514286Y-46100057D02*
X133561905Y-46052438D01*
X133561905Y-46052438D02*
X133657143Y-46004819D01*
X133657143Y-46004819D02*
X133895238Y-46004819D01*
X133895238Y-46004819D02*
X134038095Y-46052438D01*
X134371429Y-46004819D02*
X134609524Y-47004819D01*
X134609524Y-47004819D02*
X134800000Y-46290533D01*
X134800000Y-46290533D02*
X134990476Y-47004819D01*
X134990476Y-47004819D02*
X135228572Y-46004819D01*
X135514286Y-46004819D02*
X136180952Y-46004819D01*
X136180952Y-46004819D02*
X135752381Y-47004819D01*
X133466667Y-66707200D02*
X133609524Y-66754819D01*
X133609524Y-66754819D02*
X133847619Y-66754819D01*
X133847619Y-66754819D02*
X133942857Y-66707200D01*
X133942857Y-66707200D02*
X133990476Y-66659580D01*
X133990476Y-66659580D02*
X134038095Y-66564342D01*
X134038095Y-66564342D02*
X134038095Y-66469104D01*
X134038095Y-66469104D02*
X133990476Y-66373866D01*
X133990476Y-66373866D02*
X133942857Y-66326247D01*
X133942857Y-66326247D02*
X133847619Y-66278628D01*
X133847619Y-66278628D02*
X133657143Y-66231009D01*
X133657143Y-66231009D02*
X133561905Y-66183390D01*
X133561905Y-66183390D02*
X133514286Y-66135771D01*
X133514286Y-66135771D02*
X133466667Y-66040533D01*
X133466667Y-66040533D02*
X133466667Y-65945295D01*
X133466667Y-65945295D02*
X133514286Y-65850057D01*
X133514286Y-65850057D02*
X133561905Y-65802438D01*
X133561905Y-65802438D02*
X133657143Y-65754819D01*
X133657143Y-65754819D02*
X133895238Y-65754819D01*
X133895238Y-65754819D02*
X134038095Y-65802438D01*
X134371429Y-65754819D02*
X134609524Y-66754819D01*
X134609524Y-66754819D02*
X134800000Y-66040533D01*
X134800000Y-66040533D02*
X134990476Y-66754819D01*
X134990476Y-66754819D02*
X135228572Y-65754819D01*
X135752381Y-66183390D02*
X135657143Y-66135771D01*
X135657143Y-66135771D02*
X135609524Y-66088152D01*
X135609524Y-66088152D02*
X135561905Y-65992914D01*
X135561905Y-65992914D02*
X135561905Y-65945295D01*
X135561905Y-65945295D02*
X135609524Y-65850057D01*
X135609524Y-65850057D02*
X135657143Y-65802438D01*
X135657143Y-65802438D02*
X135752381Y-65754819D01*
X135752381Y-65754819D02*
X135942857Y-65754819D01*
X135942857Y-65754819D02*
X136038095Y-65802438D01*
X136038095Y-65802438D02*
X136085714Y-65850057D01*
X136085714Y-65850057D02*
X136133333Y-65945295D01*
X136133333Y-65945295D02*
X136133333Y-65992914D01*
X136133333Y-65992914D02*
X136085714Y-66088152D01*
X136085714Y-66088152D02*
X136038095Y-66135771D01*
X136038095Y-66135771D02*
X135942857Y-66183390D01*
X135942857Y-66183390D02*
X135752381Y-66183390D01*
X135752381Y-66183390D02*
X135657143Y-66231009D01*
X135657143Y-66231009D02*
X135609524Y-66278628D01*
X135609524Y-66278628D02*
X135561905Y-66373866D01*
X135561905Y-66373866D02*
X135561905Y-66564342D01*
X135561905Y-66564342D02*
X135609524Y-66659580D01*
X135609524Y-66659580D02*
X135657143Y-66707200D01*
X135657143Y-66707200D02*
X135752381Y-66754819D01*
X135752381Y-66754819D02*
X135942857Y-66754819D01*
X135942857Y-66754819D02*
X136038095Y-66707200D01*
X136038095Y-66707200D02*
X136085714Y-66659580D01*
X136085714Y-66659580D02*
X136133333Y-66564342D01*
X136133333Y-66564342D02*
X136133333Y-66373866D01*
X136133333Y-66373866D02*
X136085714Y-66278628D01*
X136085714Y-66278628D02*
X136038095Y-66231009D01*
X136038095Y-66231009D02*
X135942857Y-66183390D01*
X77526667Y-46503200D02*
X77669524Y-46550819D01*
X77669524Y-46550819D02*
X77907619Y-46550819D01*
X77907619Y-46550819D02*
X78002857Y-46503200D01*
X78002857Y-46503200D02*
X78050476Y-46455580D01*
X78050476Y-46455580D02*
X78098095Y-46360342D01*
X78098095Y-46360342D02*
X78098095Y-46265104D01*
X78098095Y-46265104D02*
X78050476Y-46169866D01*
X78050476Y-46169866D02*
X78002857Y-46122247D01*
X78002857Y-46122247D02*
X77907619Y-46074628D01*
X77907619Y-46074628D02*
X77717143Y-46027009D01*
X77717143Y-46027009D02*
X77621905Y-45979390D01*
X77621905Y-45979390D02*
X77574286Y-45931771D01*
X77574286Y-45931771D02*
X77526667Y-45836533D01*
X77526667Y-45836533D02*
X77526667Y-45741295D01*
X77526667Y-45741295D02*
X77574286Y-45646057D01*
X77574286Y-45646057D02*
X77621905Y-45598438D01*
X77621905Y-45598438D02*
X77717143Y-45550819D01*
X77717143Y-45550819D02*
X77955238Y-45550819D01*
X77955238Y-45550819D02*
X78098095Y-45598438D01*
X78431429Y-45550819D02*
X78669524Y-46550819D01*
X78669524Y-46550819D02*
X78860000Y-45836533D01*
X78860000Y-45836533D02*
X79050476Y-46550819D01*
X79050476Y-46550819D02*
X79288572Y-45550819D01*
X79574286Y-45550819D02*
X80193333Y-45550819D01*
X80193333Y-45550819D02*
X79860000Y-45931771D01*
X79860000Y-45931771D02*
X80002857Y-45931771D01*
X80002857Y-45931771D02*
X80098095Y-45979390D01*
X80098095Y-45979390D02*
X80145714Y-46027009D01*
X80145714Y-46027009D02*
X80193333Y-46122247D01*
X80193333Y-46122247D02*
X80193333Y-46360342D01*
X80193333Y-46360342D02*
X80145714Y-46455580D01*
X80145714Y-46455580D02*
X80098095Y-46503200D01*
X80098095Y-46503200D02*
X80002857Y-46550819D01*
X80002857Y-46550819D02*
X79717143Y-46550819D01*
X79717143Y-46550819D02*
X79621905Y-46503200D01*
X79621905Y-46503200D02*
X79574286Y-46455580D01*
X96576667Y-65553200D02*
X96719524Y-65600819D01*
X96719524Y-65600819D02*
X96957619Y-65600819D01*
X96957619Y-65600819D02*
X97052857Y-65553200D01*
X97052857Y-65553200D02*
X97100476Y-65505580D01*
X97100476Y-65505580D02*
X97148095Y-65410342D01*
X97148095Y-65410342D02*
X97148095Y-65315104D01*
X97148095Y-65315104D02*
X97100476Y-65219866D01*
X97100476Y-65219866D02*
X97052857Y-65172247D01*
X97052857Y-65172247D02*
X96957619Y-65124628D01*
X96957619Y-65124628D02*
X96767143Y-65077009D01*
X96767143Y-65077009D02*
X96671905Y-65029390D01*
X96671905Y-65029390D02*
X96624286Y-64981771D01*
X96624286Y-64981771D02*
X96576667Y-64886533D01*
X96576667Y-64886533D02*
X96576667Y-64791295D01*
X96576667Y-64791295D02*
X96624286Y-64696057D01*
X96624286Y-64696057D02*
X96671905Y-64648438D01*
X96671905Y-64648438D02*
X96767143Y-64600819D01*
X96767143Y-64600819D02*
X97005238Y-64600819D01*
X97005238Y-64600819D02*
X97148095Y-64648438D01*
X97481429Y-64600819D02*
X97719524Y-65600819D01*
X97719524Y-65600819D02*
X97910000Y-64886533D01*
X97910000Y-64886533D02*
X98100476Y-65600819D01*
X98100476Y-65600819D02*
X98338572Y-64600819D01*
X99148095Y-64600819D02*
X98957619Y-64600819D01*
X98957619Y-64600819D02*
X98862381Y-64648438D01*
X98862381Y-64648438D02*
X98814762Y-64696057D01*
X98814762Y-64696057D02*
X98719524Y-64838914D01*
X98719524Y-64838914D02*
X98671905Y-65029390D01*
X98671905Y-65029390D02*
X98671905Y-65410342D01*
X98671905Y-65410342D02*
X98719524Y-65505580D01*
X98719524Y-65505580D02*
X98767143Y-65553200D01*
X98767143Y-65553200D02*
X98862381Y-65600819D01*
X98862381Y-65600819D02*
X99052857Y-65600819D01*
X99052857Y-65600819D02*
X99148095Y-65553200D01*
X99148095Y-65553200D02*
X99195714Y-65505580D01*
X99195714Y-65505580D02*
X99243333Y-65410342D01*
X99243333Y-65410342D02*
X99243333Y-65172247D01*
X99243333Y-65172247D02*
X99195714Y-65077009D01*
X99195714Y-65077009D02*
X99148095Y-65029390D01*
X99148095Y-65029390D02*
X99052857Y-64981771D01*
X99052857Y-64981771D02*
X98862381Y-64981771D01*
X98862381Y-64981771D02*
X98767143Y-65029390D01*
X98767143Y-65029390D02*
X98719524Y-65077009D01*
X98719524Y-65077009D02*
X98671905Y-65172247D01*
X58476667Y-65553200D02*
X58619524Y-65600819D01*
X58619524Y-65600819D02*
X58857619Y-65600819D01*
X58857619Y-65600819D02*
X58952857Y-65553200D01*
X58952857Y-65553200D02*
X59000476Y-65505580D01*
X59000476Y-65505580D02*
X59048095Y-65410342D01*
X59048095Y-65410342D02*
X59048095Y-65315104D01*
X59048095Y-65315104D02*
X59000476Y-65219866D01*
X59000476Y-65219866D02*
X58952857Y-65172247D01*
X58952857Y-65172247D02*
X58857619Y-65124628D01*
X58857619Y-65124628D02*
X58667143Y-65077009D01*
X58667143Y-65077009D02*
X58571905Y-65029390D01*
X58571905Y-65029390D02*
X58524286Y-64981771D01*
X58524286Y-64981771D02*
X58476667Y-64886533D01*
X58476667Y-64886533D02*
X58476667Y-64791295D01*
X58476667Y-64791295D02*
X58524286Y-64696057D01*
X58524286Y-64696057D02*
X58571905Y-64648438D01*
X58571905Y-64648438D02*
X58667143Y-64600819D01*
X58667143Y-64600819D02*
X58905238Y-64600819D01*
X58905238Y-64600819D02*
X59048095Y-64648438D01*
X59381429Y-64600819D02*
X59619524Y-65600819D01*
X59619524Y-65600819D02*
X59810000Y-64886533D01*
X59810000Y-64886533D02*
X60000476Y-65600819D01*
X60000476Y-65600819D02*
X60238572Y-64600819D01*
X60571905Y-64696057D02*
X60619524Y-64648438D01*
X60619524Y-64648438D02*
X60714762Y-64600819D01*
X60714762Y-64600819D02*
X60952857Y-64600819D01*
X60952857Y-64600819D02*
X61048095Y-64648438D01*
X61048095Y-64648438D02*
X61095714Y-64696057D01*
X61095714Y-64696057D02*
X61143333Y-64791295D01*
X61143333Y-64791295D02*
X61143333Y-64886533D01*
X61143333Y-64886533D02*
X61095714Y-65029390D01*
X61095714Y-65029390D02*
X60524286Y-65600819D01*
X60524286Y-65600819D02*
X61143333Y-65600819D01*
X139488095Y-37054819D02*
X139488095Y-36054819D01*
X139488095Y-36531009D02*
X140059523Y-36531009D01*
X140059523Y-37054819D02*
X140059523Y-36054819D01*
X140488095Y-36150057D02*
X140535714Y-36102438D01*
X140535714Y-36102438D02*
X140630952Y-36054819D01*
X140630952Y-36054819D02*
X140869047Y-36054819D01*
X140869047Y-36054819D02*
X140964285Y-36102438D01*
X140964285Y-36102438D02*
X141011904Y-36150057D01*
X141011904Y-36150057D02*
X141059523Y-36245295D01*
X141059523Y-36245295D02*
X141059523Y-36340533D01*
X141059523Y-36340533D02*
X141011904Y-36483390D01*
X141011904Y-36483390D02*
X140440476Y-37054819D01*
X140440476Y-37054819D02*
X141059523Y-37054819D01*
X53488095Y-37304819D02*
X53488095Y-36304819D01*
X53488095Y-36781009D02*
X54059523Y-36781009D01*
X54059523Y-37304819D02*
X54059523Y-36304819D01*
X55059523Y-37304819D02*
X54488095Y-37304819D01*
X54773809Y-37304819D02*
X54773809Y-36304819D01*
X54773809Y-36304819D02*
X54678571Y-36447676D01*
X54678571Y-36447676D02*
X54583333Y-36542914D01*
X54583333Y-36542914D02*
X54488095Y-36590533D01*
X119238095Y-68804819D02*
X119238095Y-67804819D01*
X119238095Y-68281009D02*
X119809523Y-68281009D01*
X119809523Y-68804819D02*
X119809523Y-67804819D01*
X120714285Y-68138152D02*
X120714285Y-68804819D01*
X120476190Y-67757200D02*
X120238095Y-68471485D01*
X120238095Y-68471485D02*
X120857142Y-68471485D01*
X77526667Y-65553200D02*
X77669524Y-65600819D01*
X77669524Y-65600819D02*
X77907619Y-65600819D01*
X77907619Y-65600819D02*
X78002857Y-65553200D01*
X78002857Y-65553200D02*
X78050476Y-65505580D01*
X78050476Y-65505580D02*
X78098095Y-65410342D01*
X78098095Y-65410342D02*
X78098095Y-65315104D01*
X78098095Y-65315104D02*
X78050476Y-65219866D01*
X78050476Y-65219866D02*
X78002857Y-65172247D01*
X78002857Y-65172247D02*
X77907619Y-65124628D01*
X77907619Y-65124628D02*
X77717143Y-65077009D01*
X77717143Y-65077009D02*
X77621905Y-65029390D01*
X77621905Y-65029390D02*
X77574286Y-64981771D01*
X77574286Y-64981771D02*
X77526667Y-64886533D01*
X77526667Y-64886533D02*
X77526667Y-64791295D01*
X77526667Y-64791295D02*
X77574286Y-64696057D01*
X77574286Y-64696057D02*
X77621905Y-64648438D01*
X77621905Y-64648438D02*
X77717143Y-64600819D01*
X77717143Y-64600819D02*
X77955238Y-64600819D01*
X77955238Y-64600819D02*
X78098095Y-64648438D01*
X78431429Y-64600819D02*
X78669524Y-65600819D01*
X78669524Y-65600819D02*
X78860000Y-64886533D01*
X78860000Y-64886533D02*
X79050476Y-65600819D01*
X79050476Y-65600819D02*
X79288572Y-64600819D01*
X80098095Y-64934152D02*
X80098095Y-65600819D01*
X79860000Y-64553200D02*
X79621905Y-65267485D01*
X79621905Y-65267485D02*
X80240952Y-65267485D01*
D12*
X118197666Y-48426985D02*
X118197666Y-49146652D01*
X118197666Y-49146652D02*
X118240000Y-49231318D01*
X118240000Y-49231318D02*
X118282333Y-49273652D01*
X118282333Y-49273652D02*
X118367000Y-49315985D01*
X118367000Y-49315985D02*
X118536333Y-49315985D01*
X118536333Y-49315985D02*
X118621000Y-49273652D01*
X118621000Y-49273652D02*
X118663333Y-49231318D01*
X118663333Y-49231318D02*
X118705666Y-49146652D01*
X118705666Y-49146652D02*
X118705666Y-48426985D01*
X119594666Y-49315985D02*
X119086666Y-49315985D01*
X119340666Y-49315985D02*
X119340666Y-48426985D01*
X119340666Y-48426985D02*
X119255999Y-48553985D01*
X119255999Y-48553985D02*
X119171333Y-48638652D01*
X119171333Y-48638652D02*
X119086666Y-48680985D01*
D11*
X114113095Y-45277200D02*
X114255952Y-45324819D01*
X114255952Y-45324819D02*
X114494047Y-45324819D01*
X114494047Y-45324819D02*
X114589285Y-45277200D01*
X114589285Y-45277200D02*
X114636904Y-45229580D01*
X114636904Y-45229580D02*
X114684523Y-45134342D01*
X114684523Y-45134342D02*
X114684523Y-45039104D01*
X114684523Y-45039104D02*
X114636904Y-44943866D01*
X114636904Y-44943866D02*
X114589285Y-44896247D01*
X114589285Y-44896247D02*
X114494047Y-44848628D01*
X114494047Y-44848628D02*
X114303571Y-44801009D01*
X114303571Y-44801009D02*
X114208333Y-44753390D01*
X114208333Y-44753390D02*
X114160714Y-44705771D01*
X114160714Y-44705771D02*
X114113095Y-44610533D01*
X114113095Y-44610533D02*
X114113095Y-44515295D01*
X114113095Y-44515295D02*
X114160714Y-44420057D01*
X114160714Y-44420057D02*
X114208333Y-44372438D01*
X114208333Y-44372438D02*
X114303571Y-44324819D01*
X114303571Y-44324819D02*
X114541666Y-44324819D01*
X114541666Y-44324819D02*
X114684523Y-44372438D01*
X115494047Y-45277200D02*
X115398809Y-45324819D01*
X115398809Y-45324819D02*
X115208333Y-45324819D01*
X115208333Y-45324819D02*
X115113095Y-45277200D01*
X115113095Y-45277200D02*
X115065476Y-45181961D01*
X115065476Y-45181961D02*
X115065476Y-44801009D01*
X115065476Y-44801009D02*
X115113095Y-44705771D01*
X115113095Y-44705771D02*
X115208333Y-44658152D01*
X115208333Y-44658152D02*
X115398809Y-44658152D01*
X115398809Y-44658152D02*
X115494047Y-44705771D01*
X115494047Y-44705771D02*
X115541666Y-44801009D01*
X115541666Y-44801009D02*
X115541666Y-44896247D01*
X115541666Y-44896247D02*
X115065476Y-44991485D01*
X116351190Y-45277200D02*
X116255952Y-45324819D01*
X116255952Y-45324819D02*
X116065476Y-45324819D01*
X116065476Y-45324819D02*
X115970238Y-45277200D01*
X115970238Y-45277200D02*
X115922619Y-45181961D01*
X115922619Y-45181961D02*
X115922619Y-44801009D01*
X115922619Y-44801009D02*
X115970238Y-44705771D01*
X115970238Y-44705771D02*
X116065476Y-44658152D01*
X116065476Y-44658152D02*
X116255952Y-44658152D01*
X116255952Y-44658152D02*
X116351190Y-44705771D01*
X116351190Y-44705771D02*
X116398809Y-44801009D01*
X116398809Y-44801009D02*
X116398809Y-44896247D01*
X116398809Y-44896247D02*
X115922619Y-44991485D01*
X117208333Y-45277200D02*
X117113095Y-45324819D01*
X117113095Y-45324819D02*
X116922619Y-45324819D01*
X116922619Y-45324819D02*
X116827381Y-45277200D01*
X116827381Y-45277200D02*
X116779762Y-45181961D01*
X116779762Y-45181961D02*
X116779762Y-44801009D01*
X116779762Y-44801009D02*
X116827381Y-44705771D01*
X116827381Y-44705771D02*
X116922619Y-44658152D01*
X116922619Y-44658152D02*
X117113095Y-44658152D01*
X117113095Y-44658152D02*
X117208333Y-44705771D01*
X117208333Y-44705771D02*
X117255952Y-44801009D01*
X117255952Y-44801009D02*
X117255952Y-44896247D01*
X117255952Y-44896247D02*
X116779762Y-44991485D01*
X118113095Y-45324819D02*
X118113095Y-44324819D01*
X118113095Y-45277200D02*
X118017857Y-45324819D01*
X118017857Y-45324819D02*
X117827381Y-45324819D01*
X117827381Y-45324819D02*
X117732143Y-45277200D01*
X117732143Y-45277200D02*
X117684524Y-45229580D01*
X117684524Y-45229580D02*
X117636905Y-45134342D01*
X117636905Y-45134342D02*
X117636905Y-44848628D01*
X117636905Y-44848628D02*
X117684524Y-44753390D01*
X117684524Y-44753390D02*
X117732143Y-44705771D01*
X117732143Y-44705771D02*
X117827381Y-44658152D01*
X117827381Y-44658152D02*
X118017857Y-44658152D01*
X118017857Y-44658152D02*
X118113095Y-44705771D01*
X119303572Y-45277200D02*
X119446429Y-45324819D01*
X119446429Y-45324819D02*
X119684524Y-45324819D01*
X119684524Y-45324819D02*
X119779762Y-45277200D01*
X119779762Y-45277200D02*
X119827381Y-45229580D01*
X119827381Y-45229580D02*
X119875000Y-45134342D01*
X119875000Y-45134342D02*
X119875000Y-45039104D01*
X119875000Y-45039104D02*
X119827381Y-44943866D01*
X119827381Y-44943866D02*
X119779762Y-44896247D01*
X119779762Y-44896247D02*
X119684524Y-44848628D01*
X119684524Y-44848628D02*
X119494048Y-44801009D01*
X119494048Y-44801009D02*
X119398810Y-44753390D01*
X119398810Y-44753390D02*
X119351191Y-44705771D01*
X119351191Y-44705771D02*
X119303572Y-44610533D01*
X119303572Y-44610533D02*
X119303572Y-44515295D01*
X119303572Y-44515295D02*
X119351191Y-44420057D01*
X119351191Y-44420057D02*
X119398810Y-44372438D01*
X119398810Y-44372438D02*
X119494048Y-44324819D01*
X119494048Y-44324819D02*
X119732143Y-44324819D01*
X119732143Y-44324819D02*
X119875000Y-44372438D01*
X120160715Y-44658152D02*
X120541667Y-44658152D01*
X120303572Y-44324819D02*
X120303572Y-45181961D01*
X120303572Y-45181961D02*
X120351191Y-45277200D01*
X120351191Y-45277200D02*
X120446429Y-45324819D01*
X120446429Y-45324819D02*
X120541667Y-45324819D01*
X121303572Y-44658152D02*
X121303572Y-45324819D01*
X120875001Y-44658152D02*
X120875001Y-45181961D01*
X120875001Y-45181961D02*
X120922620Y-45277200D01*
X120922620Y-45277200D02*
X121017858Y-45324819D01*
X121017858Y-45324819D02*
X121160715Y-45324819D01*
X121160715Y-45324819D02*
X121255953Y-45277200D01*
X121255953Y-45277200D02*
X121303572Y-45229580D01*
X122208334Y-45324819D02*
X122208334Y-44324819D01*
X122208334Y-45277200D02*
X122113096Y-45324819D01*
X122113096Y-45324819D02*
X121922620Y-45324819D01*
X121922620Y-45324819D02*
X121827382Y-45277200D01*
X121827382Y-45277200D02*
X121779763Y-45229580D01*
X121779763Y-45229580D02*
X121732144Y-45134342D01*
X121732144Y-45134342D02*
X121732144Y-44848628D01*
X121732144Y-44848628D02*
X121779763Y-44753390D01*
X121779763Y-44753390D02*
X121827382Y-44705771D01*
X121827382Y-44705771D02*
X121922620Y-44658152D01*
X121922620Y-44658152D02*
X122113096Y-44658152D01*
X122113096Y-44658152D02*
X122208334Y-44705771D01*
X122684525Y-45324819D02*
X122684525Y-44658152D01*
X122684525Y-44324819D02*
X122636906Y-44372438D01*
X122636906Y-44372438D02*
X122684525Y-44420057D01*
X122684525Y-44420057D02*
X122732144Y-44372438D01*
X122732144Y-44372438D02*
X122684525Y-44324819D01*
X122684525Y-44324819D02*
X122684525Y-44420057D01*
X123303572Y-45324819D02*
X123208334Y-45277200D01*
X123208334Y-45277200D02*
X123160715Y-45229580D01*
X123160715Y-45229580D02*
X123113096Y-45134342D01*
X123113096Y-45134342D02*
X123113096Y-44848628D01*
X123113096Y-44848628D02*
X123160715Y-44753390D01*
X123160715Y-44753390D02*
X123208334Y-44705771D01*
X123208334Y-44705771D02*
X123303572Y-44658152D01*
X123303572Y-44658152D02*
X123446429Y-44658152D01*
X123446429Y-44658152D02*
X123541667Y-44705771D01*
X123541667Y-44705771D02*
X123589286Y-44753390D01*
X123589286Y-44753390D02*
X123636905Y-44848628D01*
X123636905Y-44848628D02*
X123636905Y-45134342D01*
X123636905Y-45134342D02*
X123589286Y-45229580D01*
X123589286Y-45229580D02*
X123541667Y-45277200D01*
X123541667Y-45277200D02*
X123446429Y-45324819D01*
X123446429Y-45324819D02*
X123303572Y-45324819D01*
X117351191Y-46324819D02*
X118017857Y-47324819D01*
X118017857Y-46324819D02*
X117351191Y-47324819D01*
X118398810Y-47324819D02*
X118398810Y-46324819D01*
X118827381Y-47039104D02*
X119303571Y-47039104D01*
X118732143Y-47324819D02*
X119065476Y-46324819D01*
X119065476Y-46324819D02*
X119398809Y-47324819D01*
X119922619Y-46324819D02*
X120113095Y-46324819D01*
X120113095Y-46324819D02*
X120208333Y-46372438D01*
X120208333Y-46372438D02*
X120303571Y-46467676D01*
X120303571Y-46467676D02*
X120351190Y-46658152D01*
X120351190Y-46658152D02*
X120351190Y-46991485D01*
X120351190Y-46991485D02*
X120303571Y-47181961D01*
X120303571Y-47181961D02*
X120208333Y-47277200D01*
X120208333Y-47277200D02*
X120113095Y-47324819D01*
X120113095Y-47324819D02*
X119922619Y-47324819D01*
X119922619Y-47324819D02*
X119827381Y-47277200D01*
X119827381Y-47277200D02*
X119732143Y-47181961D01*
X119732143Y-47181961D02*
X119684524Y-46991485D01*
X119684524Y-46991485D02*
X119684524Y-46658152D01*
X119684524Y-46658152D02*
X119732143Y-46467676D01*
X119732143Y-46467676D02*
X119827381Y-46372438D01*
X119827381Y-46372438D02*
X119922619Y-46324819D01*
X58476667Y-46503200D02*
X58619524Y-46550819D01*
X58619524Y-46550819D02*
X58857619Y-46550819D01*
X58857619Y-46550819D02*
X58952857Y-46503200D01*
X58952857Y-46503200D02*
X59000476Y-46455580D01*
X59000476Y-46455580D02*
X59048095Y-46360342D01*
X59048095Y-46360342D02*
X59048095Y-46265104D01*
X59048095Y-46265104D02*
X59000476Y-46169866D01*
X59000476Y-46169866D02*
X58952857Y-46122247D01*
X58952857Y-46122247D02*
X58857619Y-46074628D01*
X58857619Y-46074628D02*
X58667143Y-46027009D01*
X58667143Y-46027009D02*
X58571905Y-45979390D01*
X58571905Y-45979390D02*
X58524286Y-45931771D01*
X58524286Y-45931771D02*
X58476667Y-45836533D01*
X58476667Y-45836533D02*
X58476667Y-45741295D01*
X58476667Y-45741295D02*
X58524286Y-45646057D01*
X58524286Y-45646057D02*
X58571905Y-45598438D01*
X58571905Y-45598438D02*
X58667143Y-45550819D01*
X58667143Y-45550819D02*
X58905238Y-45550819D01*
X58905238Y-45550819D02*
X59048095Y-45598438D01*
X59381429Y-45550819D02*
X59619524Y-46550819D01*
X59619524Y-46550819D02*
X59810000Y-45836533D01*
X59810000Y-45836533D02*
X60000476Y-46550819D01*
X60000476Y-46550819D02*
X60238572Y-45550819D01*
X61143333Y-46550819D02*
X60571905Y-46550819D01*
X60857619Y-46550819D02*
X60857619Y-45550819D01*
X60857619Y-45550819D02*
X60762381Y-45693676D01*
X60762381Y-45693676D02*
X60667143Y-45788914D01*
X60667143Y-45788914D02*
X60571905Y-45836533D01*
X68738095Y-78304819D02*
X68738095Y-77304819D01*
X68738095Y-77781009D02*
X69309523Y-77781009D01*
X69309523Y-78304819D02*
X69309523Y-77304819D01*
X69690476Y-77304819D02*
X70309523Y-77304819D01*
X70309523Y-77304819D02*
X69976190Y-77685771D01*
X69976190Y-77685771D02*
X70119047Y-77685771D01*
X70119047Y-77685771D02*
X70214285Y-77733390D01*
X70214285Y-77733390D02*
X70261904Y-77781009D01*
X70261904Y-77781009D02*
X70309523Y-77876247D01*
X70309523Y-77876247D02*
X70309523Y-78114342D01*
X70309523Y-78114342D02*
X70261904Y-78209580D01*
X70261904Y-78209580D02*
X70214285Y-78257200D01*
X70214285Y-78257200D02*
X70119047Y-78304819D01*
X70119047Y-78304819D02*
X69833333Y-78304819D01*
X69833333Y-78304819D02*
X69738095Y-78257200D01*
X69738095Y-78257200D02*
X69690476Y-78209580D01*
%TO.C,SW5*%
D13*
X90925000Y-46985000D02*
X104895000Y-46985000D01*
X90925000Y-60955000D02*
X90925000Y-46985000D01*
X104895000Y-46985000D02*
X104895000Y-60955000D01*
X104895000Y-60955000D02*
X90925000Y-60955000D01*
%TO.C,SW7*%
X131700000Y-49650000D02*
X132300000Y-49650000D01*
X132000000Y-49950000D02*
X131700000Y-49650000D01*
X132300000Y-49650000D02*
X132000000Y-49950000D01*
X133400000Y-47850000D02*
X133400000Y-59650000D01*
X137500000Y-47850000D02*
X133400000Y-47850000D01*
X137500000Y-59650000D02*
X133400000Y-59650000D01*
X139000000Y-53750000D02*
X140000000Y-53750000D01*
X139500000Y-53250000D02*
X139500000Y-54250000D01*
X141500000Y-47850000D02*
X145600000Y-47850000D01*
X145600000Y-47850000D02*
X145600000Y-50250000D01*
X145600000Y-52450000D02*
X145600000Y-55050000D01*
X145600000Y-57250000D02*
X145600000Y-59650000D01*
X145600000Y-59650000D02*
X141500000Y-59650000D01*
X142500000Y-53750000D02*
G75*
G02*
X136500000Y-53750000I-3000000J0D01*
G01*
X136500000Y-53750000D02*
G75*
G02*
X142500000Y-53750000I3000000J0D01*
G01*
%TO.C,SW8*%
X131700000Y-69400000D02*
X132300000Y-69400000D01*
X132000000Y-69700000D02*
X131700000Y-69400000D01*
X132300000Y-69400000D02*
X132000000Y-69700000D01*
X133400000Y-67600000D02*
X133400000Y-79400000D01*
X137500000Y-67600000D02*
X133400000Y-67600000D01*
X137500000Y-79400000D02*
X133400000Y-79400000D01*
X139000000Y-73500000D02*
X140000000Y-73500000D01*
X139500000Y-73000000D02*
X139500000Y-74000000D01*
X141500000Y-67600000D02*
X145600000Y-67600000D01*
X145600000Y-67600000D02*
X145600000Y-70000000D01*
X145600000Y-72200000D02*
X145600000Y-74800000D01*
X145600000Y-77000000D02*
X145600000Y-79400000D01*
X145600000Y-79400000D02*
X141500000Y-79400000D01*
X142500000Y-73500000D02*
G75*
G02*
X136500000Y-73500000I-3000000J0D01*
G01*
X136500000Y-73500000D02*
G75*
G02*
X142500000Y-73500000I3000000J0D01*
G01*
%TO.C,SW3*%
X71875000Y-46985000D02*
X85845000Y-46985000D01*
X71875000Y-60955000D02*
X71875000Y-46985000D01*
X85845000Y-46985000D02*
X85845000Y-60955000D01*
X85845000Y-60955000D02*
X71875000Y-60955000D01*
%TO.C,SW6*%
X90925000Y-66035000D02*
X104895000Y-66035000D01*
X90925000Y-80005000D02*
X90925000Y-66035000D01*
X104895000Y-66035000D02*
X104895000Y-80005000D01*
X104895000Y-80005000D02*
X90925000Y-80005000D01*
%TO.C,SW2*%
X52825000Y-66035000D02*
X66795000Y-66035000D01*
X52825000Y-80005000D02*
X52825000Y-66035000D01*
X66795000Y-66035000D02*
X66795000Y-80005000D01*
X66795000Y-80005000D02*
X52825000Y-80005000D01*
%TO.C,SW4*%
X71875000Y-66035000D02*
X85845000Y-66035000D01*
X71875000Y-80005000D02*
X71875000Y-66035000D01*
X85845000Y-66035000D02*
X85845000Y-80005000D01*
X85845000Y-80005000D02*
X71875000Y-80005000D01*
%TO.C,U1*%
D14*
X109975000Y-37870000D02*
X109975000Y-54870000D01*
X111975000Y-56870000D02*
X125775000Y-56870000D01*
X114375000Y-34445970D02*
X123375000Y-34445970D01*
X114375000Y-41799270D02*
X114375000Y-34445970D01*
X123375000Y-34445970D02*
X123375000Y-41799270D01*
X123375000Y-41799270D02*
X114375000Y-41799270D01*
X125775000Y-35870910D02*
X111975000Y-35870910D01*
X127775000Y-54870000D02*
X127775000Y-37870000D01*
D13*
X109975000Y-37870000D02*
G75*
G02*
X111975000Y-35870000I2044612J-44612D01*
G01*
X111975000Y-56870000D02*
G75*
G02*
X109975000Y-54870000I44857J2044857D01*
G01*
X125775000Y-35870000D02*
G75*
G02*
X127775000Y-37870000I-44610J-2044610D01*
G01*
X127775000Y-54870000D02*
G75*
G02*
X125775000Y-56870000I-2000000J0D01*
G01*
D15*
X108002000Y-37570000D02*
G75*
G02*
X107748000Y-37570000I-127000J0D01*
G01*
X107748000Y-37570000D02*
G75*
G02*
X108002000Y-37570000I127000J0D01*
G01*
D16*
X109987285Y-37808295D02*
X109990333Y-37759527D01*
X109994397Y-37710506D01*
X109987285Y-37808295D01*
X127762713Y-54940850D02*
X127759665Y-54989618D01*
X127755601Y-55038639D01*
X127750268Y-55087407D01*
X127743664Y-55136175D01*
X127736044Y-55184690D01*
X127727153Y-55232950D01*
X127717248Y-55280955D01*
X127764492Y-54891574D01*
X127762713Y-54940850D01*
%TO.C,SW1*%
D13*
X52825000Y-46985000D02*
X66795000Y-46985000D01*
X52825000Y-60955000D02*
X52825000Y-46985000D01*
X66795000Y-46985000D02*
X66795000Y-60955000D01*
X66795000Y-60955000D02*
X52825000Y-60955000D01*
%TD*%
M02*
