%TF.GenerationSoftware,KiCad,Pcbnew,10.0.0*%
%TF.CreationDate,2026-06-08T15:49:28+05:00*%
%TF.ProjectId,HackPad,4861636b-5061-4642-9e6b-696361645f70,rev?*%
%TF.SameCoordinates,Original*%
%TF.FileFunction,Soldermask,Bot*%
%TF.FilePolarity,Negative*%
%FSLAX46Y46*%
G04 Gerber Fmt 4.6, Leading zero omitted, Abs format (unit mm)*
G04 Created by KiCad (PCBNEW 10.0.0) date 2026-06-08 15:49:28*
%MOMM*%
%LPD*%
G01*
G04 APERTURE LIST*
%ADD10R,2.000000X2.000000*%
%ADD11C,2.000000*%
%ADD12R,3.200000X2.000000*%
%ADD13C,1.700000*%
%ADD14C,4.000000*%
%ADD15C,2.200000*%
%ADD16C,3.200000*%
%ADD17R,3.500000X1.700000*%
%ADD18O,3.600000X1.700000*%
%ADD19O,3.700000X1.700000*%
G04 APERTURE END LIST*
D10*
%TO.C,SW7*%
X132000000Y-51250000D03*
D11*
X132000000Y-56250000D03*
X132000000Y-53750000D03*
D12*
X139500000Y-48150000D03*
X139500000Y-59350000D03*
D11*
X146500000Y-56250000D03*
X146500000Y-51250000D03*
%TD*%
D13*
%TO.C,SW3*%
X73780000Y-53970000D03*
D14*
X78860000Y-53970000D03*
D13*
X83940000Y-53970000D03*
D15*
X81400000Y-48890000D03*
X75050000Y-51430000D03*
%TD*%
D13*
%TO.C,SW2*%
X54730000Y-73020000D03*
D14*
X59810000Y-73020000D03*
D13*
X64890000Y-73020000D03*
D15*
X62350000Y-67940000D03*
X56000000Y-70480000D03*
%TD*%
D16*
%TO.C,H2*%
X140250000Y-40750000D03*
%TD*%
%TO.C,H1*%
X54250000Y-41000000D03*
%TD*%
%TO.C,H4*%
X120000000Y-72500000D03*
%TD*%
D13*
%TO.C,SW4*%
X73780000Y-73020000D03*
D14*
X78860000Y-73020000D03*
D13*
X83940000Y-73020000D03*
D15*
X81400000Y-67940000D03*
X75050000Y-70480000D03*
%TD*%
D17*
%TO.C,U1*%
X104000000Y-38750000D03*
D18*
X104000000Y-41290000D03*
X104000000Y-43830000D03*
X104000000Y-46370000D03*
X104000000Y-48910000D03*
X104000000Y-51450000D03*
X104000000Y-53990000D03*
X121250000Y-53990000D03*
X121250000Y-51450000D03*
X121250000Y-48910000D03*
D19*
X121250000Y-46370000D03*
X121250000Y-43830000D03*
X121250000Y-41290000D03*
X121250000Y-38750000D03*
%TD*%
D13*
%TO.C,SW1*%
X54730000Y-53970000D03*
D14*
X59810000Y-53970000D03*
D13*
X64890000Y-53970000D03*
D15*
X62350000Y-48890000D03*
X56000000Y-51430000D03*
%TD*%
D16*
%TO.C,H3*%
X69500000Y-83000000D03*
%TD*%
M02*
