%TF.GenerationSoftware,KiCad,Pcbnew,10.0.0*%
%TF.CreationDate,2026-05-26T16:32:25+05:00*%
%TF.ProjectId,HackPad,4861636b-5061-4642-9e6b-696361645f70,rev?*%
%TF.SameCoordinates,Original*%
%TF.FileFunction,Copper,L1,Top*%
%TF.FilePolarity,Positive*%
%FSLAX46Y46*%
G04 Gerber Fmt 4.6, Leading zero omitted, Abs format (unit mm)*
G04 Created by KiCad (PCBNEW 10.0.0) date 2026-05-26 16:32:25*
%MOMM*%
%LPD*%
G01*
G04 APERTURE LIST*
%TA.AperFunction,ComponentPad*%
%ADD10C,2.200000*%
%TD*%
%TA.AperFunction,ComponentPad*%
%ADD11R,2.000000X2.000000*%
%TD*%
%TA.AperFunction,ComponentPad*%
%ADD12C,2.000000*%
%TD*%
%TA.AperFunction,ComponentPad*%
%ADD13R,3.200000X2.000000*%
%TD*%
%TA.AperFunction,ComponentPad*%
%ADD14R,3.500000X1.700000*%
%TD*%
%TA.AperFunction,ComponentPad*%
%ADD15O,3.600000X1.700000*%
%TD*%
%TA.AperFunction,ComponentPad*%
%ADD16O,3.700000X1.700000*%
%TD*%
%TA.AperFunction,ViaPad*%
%ADD17C,0.600000*%
%TD*%
%TA.AperFunction,Conductor*%
%ADD18C,0.200000*%
%TD*%
G04 APERTURE END LIST*
D10*
%TO.P,SW5,1,1_1*%
%TO.N,Net-(U1-PA7_A8_D8_SCK)*%
X100450000Y-48890000D03*
%TO.P,SW5,2,2_2*%
%TO.N,GND*%
X94100000Y-51430000D03*
%TD*%
D11*
%TO.P,SW7,A,A_A*%
%TO.N,Net-(U1-PA8_A4_D4_SDA)*%
X132000000Y-51250000D03*
D12*
%TO.P,SW7,B,B_B*%
%TO.N,Net-(U1-PA9_A5_D5_SCL)*%
X132000000Y-56250000D03*
%TO.P,SW7,C,C_C*%
%TO.N,GND*%
X132000000Y-53750000D03*
D13*
%TO.P,SW7,MP*%
%TO.N,N/C*%
X139500000Y-48150000D03*
X139500000Y-59350000D03*
D12*
%TO.P,SW7,S1,S1_S1*%
%TO.N,Net-(U1-PB08_A6_D6_TX)*%
X146500000Y-56250000D03*
%TO.P,SW7,S2,S2_S2*%
%TO.N,GND*%
X146500000Y-51250000D03*
%TD*%
D11*
%TO.P,SW8,A,A_A*%
%TO.N,Net-(U1-PA5_A9_D9_MISO)*%
X132000000Y-71000000D03*
D12*
%TO.P,SW8,B,B_B*%
%TO.N,Net-(U1-PA6_A10_D10_MOSI)*%
X132000000Y-76000000D03*
%TO.P,SW8,C,C_C*%
%TO.N,GND*%
X132000000Y-73500000D03*
D13*
%TO.P,SW8,MP*%
%TO.N,N/C*%
X139500000Y-67900000D03*
X139500000Y-79100000D03*
D12*
%TO.P,SW8,S1*%
X146500000Y-76000000D03*
%TO.P,SW8,S2*%
X146500000Y-71000000D03*
%TD*%
D10*
%TO.P,SW3,1,1_1*%
%TO.N,Net-(U1-PA10_A2_D2)*%
X81400000Y-48890000D03*
%TO.P,SW3,2,2_2*%
%TO.N,GND*%
X75050000Y-51430000D03*
%TD*%
%TO.P,SW6,1,1_1*%
%TO.N,Net-(U1-PB09_A7_D7_RX)*%
X100450000Y-67940000D03*
%TO.P,SW6,2,2_2*%
%TO.N,GND*%
X94100000Y-70480000D03*
%TD*%
%TO.P,SW2,1,1_1*%
%TO.N,Net-(U1-PA4_A1_D1)*%
X62350000Y-67940000D03*
%TO.P,SW2,2,2_2*%
%TO.N,GND*%
X56000000Y-70480000D03*
%TD*%
%TO.P,SW4,1,1_1*%
%TO.N,Net-(U1-PA11_A3_D3)*%
X81400000Y-67940000D03*
%TO.P,SW4,2,2_2*%
%TO.N,GND*%
X75050000Y-70480000D03*
%TD*%
D14*
%TO.P,U1,1,PA02_A0_D0_1*%
%TO.N,Net-(U1-PA02_A0_D0)*%
X110250000Y-38750000D03*
D15*
%TO.P,U1,2,PA4_A1_D1_2*%
%TO.N,Net-(U1-PA4_A1_D1)*%
X110250000Y-41290000D03*
%TO.P,U1,3,PA10_A2_D2_3*%
%TO.N,Net-(U1-PA10_A2_D2)*%
X110250000Y-43830000D03*
%TO.P,U1,4,PA11_A3_D3_4*%
%TO.N,Net-(U1-PA11_A3_D3)*%
X110250000Y-46370000D03*
%TO.P,U1,5,PA8_A4_D4_SDA_5*%
%TO.N,Net-(U1-PA8_A4_D4_SDA)*%
X110250000Y-48910000D03*
%TO.P,U1,6,PA9_A5_D5_SCL_6*%
%TO.N,Net-(U1-PA9_A5_D5_SCL)*%
X110250000Y-51450000D03*
%TO.P,U1,7,PB08_A6_D6_TX_7*%
%TO.N,Net-(U1-PB08_A6_D6_TX)*%
X110250000Y-53990000D03*
%TO.P,U1,8,PB09_A7_D7_RX_8*%
%TO.N,Net-(U1-PB09_A7_D7_RX)*%
X127500000Y-53990000D03*
%TO.P,U1,9,PA7_A8_D8_SCK_9*%
%TO.N,Net-(U1-PA7_A8_D8_SCK)*%
X127500000Y-51450000D03*
%TO.P,U1,10,PA5_A9_D9_MISO_10*%
%TO.N,Net-(U1-PA5_A9_D9_MISO)*%
X127500000Y-48910000D03*
D16*
%TO.P,U1,11,PA6_A10_D10_MOSI_11*%
%TO.N,Net-(U1-PA6_A10_D10_MOSI)*%
X127500000Y-46370000D03*
%TO.P,U1,12,3V3_12*%
%TO.N,/PWR*%
X127500000Y-43830000D03*
%TO.P,U1,13,GND_13*%
%TO.N,GND*%
X127500000Y-41290000D03*
%TO.P,U1,14,5V_14*%
%TO.N,unconnected-(U1-5V-Pad14)*%
X127500000Y-38750000D03*
%TD*%
D10*
%TO.P,SW1,1,1_1*%
%TO.N,Net-(U1-PA02_A0_D0)*%
X62350000Y-48890000D03*
%TO.P,SW1,2,2_2*%
%TO.N,GND*%
X56000000Y-51430000D03*
%TD*%
D17*
%TO.N,Net-(U1-PA11_A3_D3)*%
X83410200Y-49040000D03*
%TO.N,Net-(U1-PA4_A1_D1)*%
X70990300Y-43118600D03*
%TO.N,Net-(U1-PB09_A7_D7_RX)*%
X124001100Y-66705500D03*
%TO.N,Net-(U1-PA5_A9_D9_MISO)*%
X128962500Y-72319100D03*
%TO.N,Net-(U1-PA7_A8_D8_SCK)*%
X124001100Y-48795500D03*
%TD*%
%TO.N,Net-(U1-PA02_A0_D0)*%
D18*
X72490000Y-38750000D02*
X111250000Y-38750000D01*
X62350000Y-48890000D02*
X72490000Y-38750000D01*
%TO.N,Net-(U1-PA11_A3_D3)*%
X86080200Y-46370000D02*
X111250000Y-46370000D01*
X83410200Y-49040000D02*
X86080200Y-46370000D01*
%TO.N,Net-(U1-PA4_A1_D1)*%
X72818900Y-41290000D02*
X111250000Y-41290000D01*
X70990300Y-43118600D02*
X72818900Y-41290000D01*
%TO.N,Net-(U1-PB09_A7_D7_RX)*%
X122766600Y-67940000D02*
X124001100Y-66705500D01*
X100450000Y-67940000D02*
X122766600Y-67940000D01*
%TO.N,Net-(U1-PA10_A2_D2)*%
X86460000Y-43830000D02*
X111250000Y-43830000D01*
X81400000Y-48890000D02*
X86460000Y-43830000D01*
%TO.N,Net-(U1-PA5_A9_D9_MISO)*%
X129379200Y-72319100D02*
X128962500Y-72319100D01*
X130698300Y-71000000D02*
X129379200Y-72319100D01*
X132000000Y-71000000D02*
X130698300Y-71000000D01*
X128962500Y-72319100D02*
X129379200Y-72319100D01*
X129379200Y-72319100D02*
X128962500Y-72319100D01*
%TO.N,Net-(U1-PB08_A6_D6_TX)*%
X145172900Y-57577100D02*
X146500000Y-56250000D01*
X115938800Y-57577100D02*
X145172900Y-57577100D01*
X112351700Y-53990000D02*
X115938800Y-57577100D01*
X111250000Y-53990000D02*
X112351700Y-53990000D01*
%TO.N,Net-(U1-PA9_A5_D5_SCL)*%
X111250000Y-51450000D02*
X112351700Y-51450000D01*
X117151700Y-56250000D02*
X112351700Y-51450000D01*
X132000000Y-56250000D02*
X117151700Y-56250000D01*
%TO.N,Net-(U1-PA8_A4_D4_SDA)*%
X132000000Y-51250000D02*
X130698300Y-51250000D01*
X129628300Y-50180000D02*
X130698300Y-51250000D01*
X122127900Y-50180000D02*
X129628300Y-50180000D01*
X120857900Y-48910000D02*
X122127900Y-50180000D01*
X111250000Y-48910000D02*
X120857900Y-48910000D01*
%TO.N,GND*%
X144000000Y-53750000D02*
X146500000Y-51250000D01*
X132000000Y-53750000D02*
X144000000Y-53750000D01*
X56069300Y-51360700D02*
X56000000Y-51430000D01*
X74980700Y-51360700D02*
X56069300Y-51360700D01*
X75050000Y-51430000D02*
X74980700Y-51360700D01*
X75119300Y-70410700D02*
X75050000Y-70480000D01*
X94030700Y-70410700D02*
X75119300Y-70410700D01*
X94100000Y-70480000D02*
X94030700Y-70410700D01*
X94030700Y-51360700D02*
X84575000Y-51360700D01*
X94100000Y-51430000D02*
X94030700Y-51360700D01*
X75119300Y-51360700D02*
X75050000Y-51430000D01*
X84575000Y-51360700D02*
X75119300Y-51360700D01*
X130970000Y-52720000D02*
X132000000Y-53750000D01*
X124268100Y-52720000D02*
X130970000Y-52720000D01*
X122331300Y-50783200D02*
X124268100Y-52720000D01*
X122163100Y-50783200D02*
X122331300Y-50783200D01*
X107615500Y-50280000D02*
X121327300Y-50280000D01*
X106534800Y-51360700D02*
X107615500Y-50280000D01*
X84575000Y-51360700D02*
X106534800Y-51360700D01*
X121830500Y-50783200D02*
X122163100Y-50783200D01*
X121359700Y-50312400D02*
X121830500Y-50783200D01*
X121327300Y-50280000D02*
X121359700Y-50312400D01*
%TO.N,Net-(U1-PA7_A8_D8_SCK)*%
X101606900Y-47733100D02*
X100450000Y-48890000D01*
X122938700Y-47733100D02*
X101606900Y-47733100D01*
X124001100Y-48795500D02*
X122938700Y-47733100D01*
X124001100Y-48795500D02*
X122938700Y-47733100D01*
X122938700Y-47733100D02*
X124001100Y-48795500D01*
%TD*%
M02*
