M48
; DRILL file KiCad 10.0.0 date 2026-05-26T16:32:35
; FORMAT={-:-/ absolute / metric / decimal}
; #@! TF.CreationDate,2026-05-26T16:32:35+05:00
; #@! TF.GenerationSoftware,Kicad,Pcbnew,10.0.0
; #@! TF.FileFunction,Plated,1,2,PTH
FMAT,2
METRIC
; #@! TA.AperFunction,Plated,PTH,ViaDrill
T1C0.300
; #@! TA.AperFunction,Plated,PTH,ComponentDrill
T2C1.000
; #@! TA.AperFunction,Plated,PTH,ComponentDrill
T3C1.500
%
G90
G05
T1
X70.99Y-43.119
X83.41Y-49.04
X124.001Y-48.795
X124.001Y-66.706
X128.963Y-72.319
T2
X111.25Y-38.75
X111.25Y-41.29
X111.25Y-43.83
X111.25Y-46.37
X111.25Y-48.91
X111.25Y-51.45
X111.25Y-53.99
X126.5Y-38.75
X126.5Y-41.29
X126.5Y-43.83
X126.5Y-46.37
X126.5Y-48.91
X126.5Y-51.45
X126.5Y-53.99
X132.0Y-51.25
X132.0Y-53.75
X132.0Y-56.25
X132.0Y-71.0
X132.0Y-73.5
X132.0Y-76.0
X146.5Y-51.25
X146.5Y-56.25
X146.5Y-71.0
X146.5Y-76.0
T3
X56.0Y-51.43
X56.0Y-70.48
X62.35Y-48.89
X62.35Y-67.94
X75.05Y-51.43
X75.05Y-70.48
X81.4Y-48.89
X81.4Y-67.94
X94.1Y-51.43
X94.1Y-70.48
X100.45Y-48.89
X100.45Y-67.94
T3
G00X138.85Y-48.15
M15
G01X140.15Y-48.15
M16
G05
G00X138.85Y-59.35
M15
G01X140.15Y-59.35
M16
G05
G00X138.85Y-67.9
M15
G01X140.15Y-67.9
M16
G05
G00X138.85Y-79.1
M15
G01X140.15Y-79.1
M16
G05
M30
